<?xml version="1.0" encoding="utf-8"?>
<!-- Generator: Adobe Illustrator 27.3.1, SVG Export Plug-In . SVG Version: 6.00 Build 0)  -->
<svg version="1.1" id="图层_1" xmlns="http://www.w3.org/2000/svg" xmlns:xlink="http://www.w3.org/1999/xlink" x="0px" y="0px"
	 viewBox="0 0 332.48 191.96" style="enable-background:new 0 0 332.48 191.96;" xml:space="preserve">
<style type="text/css">
	.st0{fill:#FBFBFC;}
	.st1{fill:#8B6339;}
	.st2{fill:#299F5A;}
	.st3{fill:#BF8851;}
	.st4{fill:#AD7B48;}
	.st5{fill:#D55747;}
	.st6{fill:#AB7948;}
	.st7{fill:#4DB56D;}
	.st8{fill:#36AD62;}
	.st9{fill:#FFFFFF;}
	.st10{fill:#7E8890;}
	.st11{fill:#7E7058;}
	.st12{fill:#33A85F;}
	.st13{fill:#717A82;}
	.st14{fill:#040000;fill-opacity:0.102;}
	.st15{fill:#6A737A;}
	.st16{fill:#DCBFA1;}
	.st17{fill:#A77D5B;}
	.st18{fill:#E9CDB0;}
	.st19{fill:#8F6A4E;}
	.st20{fill:#E6E1D9;}
	.st21{fill:#62737F;}
	.st22{fill:#FBDDB0;}
	.st23{fill:#7C92A0;}
	.st24{fill:#E3C89E;}
	.st25{fill:#B3804D;}
	.st26{fill:#DCC498;}
	.st27{fill:#728693;}
	.st28{fill:#D4BA91;}
	.st29{fill:#544B4B;}
	.st30{fill:#5D5454;}
	.st31{fill:#9C6F42;}
	.st32{fill:#D3CFC8;}
	.st33{fill:#FCF6ED;}
	.st34{fill:#3181B8;}
	.st35{fill:#3A8FCB;}
	.st36{fill:#D8D4BE;}
	.st37{fill:#BDA783;}
	.st38{fill:#FFFFFF;fill-opacity:0.302;}
	.st39{fill:#C08A53;}
	.st40{fill:#A97848;}
	.st41{fill:#117CB9;}
	.st42{fill:#2C78AA;}
	.st43{fill:#2AA05A;}
	.st44{fill:#A77646;}
	.st45{fill:#494848;}
	.st46{fill:#545454;}
	.st47{fill:#937444;}
	.st48{fill:#8A6D40;}
	.st49{fill:#737A64;}
	.st50{fill:#879076;}
	.st51{fill:#C1D7DF;}
	.st52{fill:#D6BE93;}
	.st53{fill:#8E653C;}
	.st54{fill:#84673A;}
	.st55{fill:#775D36;}
	.st56{fill:#6F5732;}
	.st57{fill:#5D5353;}
</style>
<g>
	<g id="body_FL_FL_FL_FL_FL_FL_FL_FL_FL_FL_FL_FL_FL_FL_FL" transform="matrix( 1, 0, 0, 1, 681.9,84.15) ">
		<g transform="matrix( 1, 0, 0, 1, 0,0) ">
			<g>
				<g id="Symbol_10_0_Layer0_0_FILL_00000183232674686460734260000013738997181834260655_">
					<path class="st0" d="M-558.51,72.95l1.47-8.84l-5.72,1.27L-558.51,72.95z"/>
					<path class="st1" d="M-556.32,59.73l-0.72,4.38l-1.47,8.84l3.63-5.94l1.16-1.93l1.24-2.01L-556.32,59.73 M-562.77,65.39
						l-2.32-4.11l-2.46,4.46l9.04,7.22L-562.77,65.39 M-570.48,79.71l0.46,2.58l24.59-4.33l-0.46-2.58L-570.48,79.71z"/>
					<path class="st2" d="M-557.05,64.12l0.72-4.38l-8.76,1.54l2.32,4.11L-557.05,64.12z"/>
					<path class="st3" d="M-554.88,67.02l-3.63,5.94l-9.04-7.22l2.46-4.46l-8.38,1.48l2.99,16.96l24.59-4.33l-2.99-16.96l-7.44,1.31
						l3.84,3.35l-1.24,2.01l3.44-0.61l0.29,1.67L-554.88,67.02z"/>
					<path class="st4" d="M-550.29,64.49l-3.44,0.61l-1.16,1.93l4.89-0.86L-550.29,64.49z"/>
				</g>
			</g>
		</g>
		<g transform="matrix( 0.6724700927734375, 0.18017578125, -0.18017578125, 0.6724700927734375, 4.55,2.4) ">
			<g>
				<g id="Symbol_10_0_Layer0_1_FILL_00000092421626212777792560000004836388040975708047_">
					<path class="st5" d="M-746.74,302.65c-0.01,0.4,0,0.82,0.03,1.26c-0.29,0.19-0.54,0.43-0.75,0.72c-0.2,0.29-0.34,0.6-0.42,0.92
						c-0.41,0.13-0.79,0.28-1.16,0.43c-0.93,0.38-1.37,0.72-1.32,1.01c0.06,0.32,0.59,0.49,1.59,0.53c0.39,0.01,0.82,0,1.26-0.03
						c0.17,0.27,0.39,0.51,0.67,0.69c0.3,0.21,0.61,0.35,0.92,0.42c0.14,0.43,0.29,0.81,0.43,1.16c0.39,0.97,0.74,1.43,1.05,1.37
						c0.29-0.05,0.46-0.6,0.49-1.65c0.03-0.38,0.03-0.81,0-1.27c0.25-0.17,0.48-0.39,0.66-0.67c0.21-0.27,0.35-0.57,0.43-0.89
						c0.44-0.12,0.84-0.26,1.2-0.41c0.97-0.39,1.43-0.74,1.37-1.05c-0.05-0.29-0.6-0.46-1.65-0.49c-0.39-0.03-0.81-0.03-1.27,0
						c-0.18-0.27-0.42-0.51-0.71-0.72c-0.27-0.19-0.55-0.32-0.85-0.4c-0.14-0.44-0.28-0.84-0.44-1.22
						c-0.38-0.93-0.72-1.37-1.01-1.32C-746.52,301.12-746.7,301.65-746.74,302.65z"/>
				</g>
			</g>
		</g>
		<g transform="matrix( 0.829620361328125, -0.558319091796875, 0.558319091796875, 0.829620361328125, -21.5,-4.2) ">
			<g>
				<g id="Symbol_10_0_Layer0_2_FILL_00000062880031074908649400000014494535226566217383_">
					<path class="st5" d="M-494.31-245.08c-0.25,0.07-0.47,0.18-0.65,0.34c-0.19,0.16-0.33,0.35-0.42,0.56
						c-0.33-0.01-0.62,0.01-0.87,0.06c-0.7,0.1-1.06,0.25-1.09,0.45c-0.01,0.22,0.32,0.43,0.99,0.64c0.25,0.06,0.53,0.13,0.85,0.21
						c0.06,0.21,0.16,0.41,0.3,0.6c0.16,0.19,0.36,0.34,0.6,0.45c-0.01,0.31,0.01,0.58,0.05,0.84c0.09,0.74,0.24,1.12,0.46,1.12
						c0.22,0.03,0.43-0.31,0.63-1.02c0.06-0.25,0.14-0.52,0.21-0.82c0.2-0.1,0.38-0.22,0.55-0.36c0.19-0.16,0.34-0.33,0.46-0.5
						c0.32-0.03,0.62-0.05,0.9-0.06c0.72-0.1,1.08-0.27,1.08-0.48c0.03-0.2-0.3-0.4-0.98-0.61c-0.28-0.1-0.58-0.19-0.89-0.27
						c-0.06-0.21-0.17-0.4-0.33-0.59c-0.14-0.19-0.31-0.33-0.49-0.4c-0.02-0.34-0.04-0.65-0.07-0.93c-0.1-0.7-0.26-1.06-0.48-1.08
						c-0.22-0.01-0.42,0.32-0.61,0.98C-494.19-245.71-494.26-245.41-494.31-245.08z"/>
				</g>
			</g>
		</g>
		<g transform="matrix( 1, 0, 0, 1, -4.5,-16.7) ">
			<g>
				<g id="Symbol_10_0_Layer0_3_FILL_00000065769928004138556970000002983141127631447436_">
					<path class="st4" d="M-554.67,92.73c0.01-0.07,0-0.13-0.03-0.19l-1.48-2.14c0-0.02-0.02-0.04-0.04-0.06l-2.05-1.65
						c-0.03-0.04-0.08-0.05-0.17-0.04c-0.07-0.01-0.13,0.01-0.18,0.06l-0.36,0.36c-0.04,0.03-0.06,0.08-0.07,0.14
						c0.01,0.06,0.03,0.12,0.06,0.18l1.56,2.23c0.02,0.02,0.04,0.04,0.04,0.06l1.97,1.57c0.05,0.03,0.12,0.04,0.2,0.03
						c0.07,0.01,0.13-0.01,0.18-0.06l0.3-0.31C-554.7,92.85-554.68,92.8-554.67,92.73z"/>
				</g>
			</g>
		</g>
	</g>
	
		<g id="armLeft_FL_FL_FL_FL_FL_FL_FL_FL_FL_FL_FL_FL_FL_FL_FL_FL" transform="matrix( 0.829071044921875, -0.5591278076171875, -0.5591278076171875, -0.829071044921875, 664.55,67.6) ">
		<g transform="matrix( 1, 0, 0, 1, 0,0) ">
			<g>
				<g id="Symbol_8_0_Layer0_0_FILL_00000090297135399417353860000012836973458791814799_">
					<path class="st6" d="M-504.49,237.88l-0.03-0.01c-0.24-0.09-0.48-0.15-0.71-0.19c-2.11-0.44-4.28,1.36-6.51,5.39l-1.66,2.57
						l1.84,0.1l2.51,0.15l1.23,2.23l2.38-0.59l2.08,1.31l0.84,0.57c-0.25-0.72-0.2-1.67,0.17-2.83l0.81-2.2
						c0.49-1.3,0.45-2.6-0.13-3.89C-502.25,239.22-503.19,238.35-504.49,237.88z"/>
					<path class="st7" d="M-503.37,248.83l-2.08-1.31l-2.38,0.59l-1.23-2.23l-2.51-0.15c-1.14,3.68-1.86,6.83-2.16,9.47
						c1.07,1.44,2.51,2.51,4.34,3.2C-507.21,255.89-505.2,252.7-503.37,248.83z"/>
				</g>
			</g>
		</g>
	</g>
	
		<g id="handLeft_FL_FL_FL_FL_FL_FL_FL_FL_FL_FL_FL_FL_FL_FL_FL_FL" transform="matrix( 0.829071044921875, -0.5591278076171875, -0.5591278076171875, -0.829071044921875, 650.8,44.65) ">
		<g transform="matrix( 1, 0, 0, 1, 0,0) ">
			<g>
				<g id="Symbol_9_0_Layer0_0_FILL_00000168103492635731818180000002283806714428021638_">
					<path class="st7" d="M-505.81,231.83c-0.39-2.21-1.02-3.87-1.89-4.98l-6.37,0.54c-0.53,0.04-0.78,0.3-0.75,0.78l0.03,0.36
						c0.24,5.29,1.87,7.81,4.91,7.56c1.07-0.07,2.16-0.28,3.26-0.63c0.73-0.22,1.08-0.59,1.04-1.12l0-0.16
						c-0.06-0.64-0.13-1.26-0.19-1.85l-0.01,0.03L-505.81,231.83 M-513.91,229.66c0.01-0.19,0.29-0.39,0.82-0.6
						c0.51-0.21,1.15-0.38,1.91-0.51c0.78-0.1,1.42-0.14,1.94-0.11c0.55,0.05,0.83,0.17,0.82,0.34c0.01,0.2-0.24,0.4-0.76,0.61
						c-0.52,0.23-1.17,0.41-1.95,0.53c-0.76,0.13-1.4,0.16-1.94,0.11C-513.62,229.98-513.9,229.85-513.91,229.66z"/>
					<path class="st8" d="M-513.09,229.05c-0.54,0.21-0.81,0.41-0.82,0.6c0.01,0.2,0.29,0.32,0.84,0.38
						c0.53,0.05,1.18,0.01,1.94-0.11c0.78-0.12,1.43-0.3,1.95-0.53c0.51-0.21,0.77-0.42,0.76-0.61c0.01-0.17-0.26-0.28-0.82-0.34
						c-0.52-0.03-1.16,0.01-1.94,0.11C-511.94,228.67-512.57,228.84-513.09,229.05 M-505.77,232.33c1.63-1.6,0.98-3.42-1.93-5.47
						c0.87,1.11,1.5,2.77,1.89,4.98l0.04,0.53L-505.77,232.33z"/>
				</g>
			</g>
		</g>
	</g>
	
		<g id="armRight_FL_FL_FL_FL_FL_FL_FL_FL_FL_FL_FL_FL_FL_FL_FL_FL_FL" transform="matrix( -0.871307373046875, -0.4907073974609375, 0.4907073974609375, -0.871307373046875, 698.25,68.2) ">
		<g transform="matrix( 1, 0, 0, 1, 0,0) ">
			<g>
				<g id="Symbol_8_0_Layer0_0_FILL_00000168807716956017936020000006157308037982190247_">
					<path class="st6" d="M455.35-350.57l-0.03,0.01c-0.26,0-0.5,0.02-0.74,0.06c-2.13,0.31-3.56,2.74-4.27,7.29l-0.68,2.98
						l1.76-0.54l2.41-0.72l1.92,1.68l2.03-1.37l2.4,0.52l0.99,0.25c-0.49-0.59-0.75-1.5-0.8-2.72l0.01-2.34
						c0.02-1.39-0.47-2.59-1.45-3.61C457.91-350.08,456.73-350.57,455.35-350.57z"/>
					<path class="st7" d="M460.15-340.66l-2.4-0.52l-2.03,1.37l-1.92-1.68l-2.41,0.72c0.18,3.84,0.59,7.06,1.21,9.63
						c1.5,0.99,3.22,1.5,5.18,1.53C458.95-332.71,459.75-336.39,460.15-340.66z"/>
				</g>
			</g>
		</g>
	</g>
	
		<g id="handRight_FL_FL_FL_FL_FL_FL_FL_FL_FL_FL_FL_FL_FL_FL_FL_FL_FL" transform="matrix( -0.871307373046875, -0.4907073974609375, 0.4907073974609375, -0.871307373046875, 710.15,44.65) ">
		<g transform="matrix( 1, 0, 0, 1, 0,0) ">
			<g>
				<g id="Symbol_9_0_Layer0_0_FILL_00000181086653704505353000000018337314077423527578_">
					<path class="st7" d="M461.14-357.74c-1.12-1.95-2.28-3.29-3.47-4.04l-5.8,2.68c-0.48,0.21-0.63,0.54-0.44,0.99l0.16,0.33
						c2.03,4.89,4.43,6.69,7.2,5.43c0.99-0.43,1.94-1,2.85-1.71c0.61-0.45,0.81-0.92,0.6-1.41l-0.06-0.15
						c-0.28-0.58-0.55-1.14-0.82-1.68l0.01,0.03L461.14-357.74 M452.79-357.02c-0.05-0.19,0.13-0.47,0.57-0.85
						c0.41-0.38,0.95-0.75,1.62-1.13c0.69-0.36,1.29-0.62,1.78-0.77c0.54-0.14,0.83-0.13,0.88,0.04c0.08,0.18-0.09,0.46-0.5,0.84
						c-0.41,0.4-0.96,0.79-1.65,1.17c-0.67,0.38-1.26,0.63-1.78,0.77C453.17-356.81,452.86-356.83,452.79-357.02z"/>
					<path class="st8" d="M453.35-357.86c-0.43,0.38-0.62,0.66-0.57,0.85c0.08,0.18,0.38,0.2,0.92,0.07
						c0.52-0.13,1.11-0.39,1.78-0.77c0.69-0.38,1.24-0.77,1.65-1.17c0.41-0.38,0.58-0.65,0.5-0.84c-0.05-0.16-0.35-0.18-0.88-0.04
						c-0.49,0.15-1.09,0.41-1.78,0.77C454.3-358.62,453.76-358.24,453.35-357.86 M461.35-357.29c0.98-2.06-0.25-3.55-3.68-4.49
						c1.19,0.74,2.35,2.09,3.47,4.04l0.21,0.48L461.35-357.29z"/>
				</g>
			</g>
		</g>
	</g>
	
		<g id="head_FL_FL_FL_FL_FL_FL_FL" transform="matrix( 0.9978790283203125, -0.065093994140625, 0.065093994140625, 0.9978790283203125, 681.8,67.15) ">
		<g transform="matrix( 1, 0, 0, 1, 0,0) ">
			<g>
				<g id="Symbol_12_0_Layer0_0_FILL_00000093160350041265000110000015039051670423437474_">
					<path class="st2" d="M-571.38,44.96l6.56,1.8l5.55-3.93L-571.38,44.96z"/>
					<path class="st7" d="M-555.96,25.86c-0.6-1.82-1.84-2.57-3.71-2.24L-578.8,27c-1.85,0.33-2.75,1.47-2.71,3.43
						c0.13,4.44,0.9,8.77,2.29,12.99c0.63,1.84,1.87,2.6,3.72,2.27l4.13-0.73l12.1-2.13l2.9-0.51c1.87-0.33,2.78-1.48,2.74-3.44
						C-553.73,34.52-554.5,30.18-555.96,25.86z"/>
				</g>
			</g>
		</g>
		<g transform="matrix( 1, 0, 0, 1, 0,0) ">
			<g>
				<g id="Symbol_12_0_Layer0_1_FILL_00000020379521020586925100000014086895257330168732_">
					<path class="st9" d="M-570.93,38.28c0.65-0.11,1.14-0.45,1.48-1.01c0.32-0.45,0.46-0.94,0.42-1.47l-4.57,0.81
						c0.16,0.51,0.45,0.92,0.87,1.24C-572.18,38.26-571.58,38.4-570.93,38.28 M-559.2,36.22c0.65-0.11,1.14-0.45,1.48-1.01
						c0.32-0.45,0.46-0.94,0.42-1.47l-4.57,0.81c0.16,0.51,0.45,0.92,0.87,1.24C-560.46,36.19-559.86,36.33-559.2,36.22z"/>
					<path class="st10" d="M-568.83,32.68c-0.05-0.19-0.15-0.32-0.3-0.4c-0.15-0.1-0.3-0.13-0.47-0.08
						c-1.63,0.44-3.21,0.63-4.74,0.58c-0.2-0.01-0.36,0.04-0.49,0.15c-0.13,0.11-0.19,0.26-0.18,0.45
						c-0.01,0.18,0.04,0.33,0.15,0.46s0.26,0.2,0.46,0.21c1.64,0.06,3.34-0.14,5.12-0.61c0.16-0.05,0.3-0.15,0.4-0.3
						C-568.8,33-568.78,32.85-568.83,32.68 M-557.58,29.92c-0.16-0.06-0.33-0.05-0.52,0.03c-1.42,0.57-2.97,0.93-4.65,1.08
						c-0.17,0.01-0.31,0.09-0.41,0.24c-0.11,0.13-0.16,0.29-0.14,0.48c0.01,0.17,0.08,0.31,0.2,0.42c0.15,0.1,0.31,0.15,0.48,0.14
						c1.83-0.17,3.51-0.56,5.03-1.18c0.18-0.08,0.3-0.19,0.36-0.36c0.06-0.16,0.05-0.32-0.02-0.48
						C-557.31,30.1-557.42,29.98-557.58,29.92z"/>
				</g>
			</g>
		</g>
		<g transform="matrix( 1, 0, 0, 1, -13.6,-5.7) ">
			<g>
				<g id="Symbol_12_0_Layer0_1_MEMBER_0_FILL_00000025418818444687462950000017029533467695007384_">
					<path class="st11" d="M-547.64,44.03c0.01-0.18-0.03-0.34-0.12-0.5l-1.57,1.58l1.64,1.37l-0.01-0.03
						c0.1-0.15,0.15-0.32,0.14-0.51L-547.64,44.03z"/>
					<path class="st9" d="M-555.15,45.1c-0.14,0.2-0.19,0.41-0.15,0.64c0.02,0.23,0.11,0.44,0.27,0.6c0.18,0.16,0.39,0.26,0.63,0.28
						l5.81,0.31c0.18,0.01,0.34-0.02,0.5-0.09c0.16-0.09,0.29-0.21,0.39-0.36l-1.64-1.37l1.57-1.58c-0.02-0.02-0.04-0.04-0.04-0.06
						c-0.12-0.17-0.28-0.29-0.48-0.34c-0.19-0.08-0.37-0.09-0.56-0.03l-5.76,1.6C-554.85,44.77-555.03,44.9-555.15,45.1z"/>
				</g>
			</g>
		</g>
		<g transform="matrix( 0.5523834228515625, 0, 0, 0.5523834228515625, 23,25.2) ">
			<g>
				<g id="Symbol_12_0_Layer0_2_FILL_00000141434311765376154220000008975904371200105882_">
					<path class="st12" d="M-1084.74,25.01c0,0.13,0.03,0.24,0.09,0.34l2.85,4.01c0.03,0.04,0.06,0.08,0.09,0.11l3.55,2.82
						c0.1,0.09,0.22,0.12,0.34,0.1c0.13,0,0.24-0.04,0.34-0.12l0.55-0.58c0.07-0.08,0.12-0.17,0.14-0.29c0-0.13-0.03-0.24-0.09-0.34
						l-2.64-3.92c-0.02-0.02-0.05-0.05-0.08-0.08l-3.71-2.99c-0.08-0.07-0.18-0.11-0.31-0.11c-0.13,0-0.24,0.04-0.34,0.12
						l-0.64,0.63C-1084.67,24.8-1084.72,24.9-1084.74,25.01z"/>
				</g>
			</g>
		</g>
		<g transform="matrix( 1, 0, 0, 1, 0,0) ">
			<g>
				<g id="Symbol_12_0_Layer0_3_FILL_00000017476248807334190320000011964595808223241381_">
					<path class="st13" d="M-575.79,29.13l1.09-2.86l-2.85,4.14l1.02,0.63L-575.79,29.13 M-557.18,27.41L-557.18,27.41l-4.95,1.81
						l0.52,0.75L-557.18,27.41 M-554.19,34.23l0.38,0.88c2.49-5.71,2.64-11.64,0.44-17.79l-3.37,0.59
						C-554.22,23.06-553.37,28.5-554.19,34.23 M-574.2,19.91l2.15,1.51c3.25-2.81,6.97-5,11.16-6.55c-3.78,0.09-7.32,0.94-10.6,2.55
						l1.36-2.78c-4,0-6.97,1.46-8.92,4.37l-1.89,2.74l-1.97-0.47l-1.76,7.53c0.53,0.88,0.95,1.73,1.27,2.57L-574.2,19.91z"/>
					<path class="st14" d="M-566.43,29.33l-1.59-2.77l-6.68-0.29l-1.09,2.86L-566.43,29.33z"/>
					<path class="st15" d="M-556.74,17.91l-1.58,0.28l0.64-3.2c-1.09-0.09-2.16-0.13-3.21-0.12c-4.19,1.55-7.91,3.74-11.16,6.55
						l-2.15-1.51l-9.19,11.47c0.72,1.8,0.99,3.51,0.81,5.12c-0.25,2.37,0.88,4.26,3.37,5.68l2.11-5.57l-2.05-3.86l1.6-2.33
						l2.85-4.14l6.68,0.29l1.59,2.77l0.7,1.21l3.6-1.32l4.95-1.81l0,0l2.99,6.82C-553.37,28.5-554.22,23.06-556.74,17.91z"/>
				</g>
			</g>
		</g>
	</g>
	
		<g id="legLeft_FL_FL_FL_FL_FL_FL_FL_FL_FL_FL_FL_FL_FL_FL_FL_FL_FL_FL_FL_FL_FL_FL" transform="matrix( 0.8357696533203125, 0.5355377197265625, -0.6060791015625, 0.8081207275390625, 669.3,91.85) ">
		<g transform="matrix( 1, 0, 0, 1, 0,0) ">
			<g>
				<g id="Symbol_11_0_Layer0_0_FILL_00000066489392403243566610000002942548386663304612_">
					<path class="st16" d="M-396.67,363.12l-0.39-2.17l-11.04,1.94l0.38,2.14l0.01,0.03l11.01-1.94L-396.67,363.12z"/>
					<path class="st17" d="M-396.14,366.28l-0.56-3.16l-11.01,1.94l-0.01-0.03c-0.68,0.51-1.25,1.24-1.7,2.18l0.24,1.37
						L-396.14,366.28z"/>
					<path class="st18" d="M-404.22,352.56l-0.03,0.01c-1.53,0.27-2.74,1.03-3.61,2.28c-0.89,1.28-1.19,2.69-0.92,4.24l0.67,3.8
						l11.04-1.94l-0.67-3.8c-0.28-1.55-1.04-2.78-2.29-3.68C-401.29,352.59-402.69,352.29-404.22,352.56z"/>
				</g>
			</g>
		</g>
	</g>
	
		<g id="legRight_FL_FL_FL_FL_FL_FL_FL_FL_FL_FL_FL_FL_FL_FL_FL_FL_FL_FL_FL_FL_FL_FL_FL" transform="matrix( -0.8170928955078125, 0.59710693359375, 0.6360321044921875, 0.759033203125, 694.45,91.85) ">
		<g transform="matrix( 1, 0, 0, 1, 0,0) ">
			<g>
				<g id="Symbol_11_0_Layer0_0_FILL_00000167392857720937834850000004881926327640971965_">
					<path class="st16" d="M476.13-271.33l0.37-2.12l-11.32-2.02l-0.36,2.09l-0.01,0.03l11.29,2.01L476.13-271.33z"/>
					<path class="st17" d="M475.56-268.25l0.54-3.08l-11.29-2.01l0.01-0.03c-0.83,0.24-1.63,0.71-2.38,1.41l-0.23,1.34
						L475.56-268.25z"/>
					<path class="st18" d="M472.45-283.58l-0.03-0.01c-1.57-0.28-2.99,0-4.26,0.85c-1.29,0.86-2.07,2.05-2.33,3.57l-0.65,3.71
						l11.32,2.02l0.65-3.71c0.27-1.52-0.05-2.9-0.95-4.15C475.28-282.54,474.03-283.3,472.45-283.58z"/>
				</g>
			</g>
		</g>
	</g>
</g>
<g>
	
		<g id="legLeft_FL_FL_FL_FL_FL_FL_FL_FL_FL_FL_FL_FL_FL_FL" transform="matrix( -0.52630615234375, -0.8502655029296875, -0.8502655029296875, 0.52630615234375, 126,311.3) ">
		<g transform="matrix( 1, 0, 0, 1, 0,0) ">
			<g>
				<g id="Symbol_11_0_Layer0_0_FILL_00000038376953886229506340000012324439352464934566_">
					<path class="st19" d="M206.22-17.13l-0.32-2.88l-17.6,2.29l0.26,1.98L206.22-17.13z"/>
					<path class="st17" d="M207.09-10.44l-0.87-6.69l-17.67,1.39l1.88,2.43l-1.54,0.2c-1.11,0.75-2.06,1.83-2.86,3.25l0.28,2.13
						L207.09-10.44z"/>
					<path class="st16" d="M205.89-20.01l-0.44-3.37l-17.6,2.29l0.44,3.37L205.89-20.01z"/>
					<path class="st18" d="M201.96-30.44c-1.93-1.43-4.12-1.98-6.57-1.67l-0.05,0.01c-2.45,0.32-4.4,1.41-5.88,3.29
						c-1.5,1.91-2.09,4.07-1.78,6.48l0.16,1.24l17.6-2.29l-0.16-1.24C204.98-27.04,203.87-28.98,201.96-30.44z"/>
				</g>
			</g>
		</g>
	</g>
	
		<g id="legRight_FL_FL_FL_FL_FL_FL_FL_FL_FL_FL_FL_FL_FL_FL" transform="matrix( -0.70709228515625, 0.70709228515625, 0.70709228515625, 0.7071075439453125, 139.05,300.75) ">
		<g transform="matrix( 1, 0, 0, 1, 0,0) ">
			<g>
				<g id="Symbol_11_0_Layer0_0_FILL_00000101808188369360996690000008561268742721058712_">
					<path class="st19" d="M-58.98-175.01l-0.32-2.88l-17.6,2.29l0.26,1.98L-58.98-175.01z"/>
					<path class="st17" d="M-58.1-168.32l-0.87-6.69l-17.67,1.39l1.88,2.43l-1.54,0.2c-1.11,0.75-2.06,1.83-2.86,3.25l0.28,2.13
						L-58.1-168.32z"/>
					<path class="st16" d="M-59.3-177.89l-0.44-3.37l-17.6,2.29l0.44,3.37L-59.3-177.89z"/>
					<path class="st18" d="M-63.23-188.32c-1.93-1.43-4.12-1.98-6.57-1.67l-0.05,0.01c-2.45,0.32-4.4,1.41-5.88,3.29
						c-1.5,1.91-2.09,4.07-1.78,6.48l0.16,1.24l17.6-2.29l-0.16-1.24C-60.21-184.92-61.32-186.86-63.23-188.32z"/>
				</g>
			</g>
		</g>
	</g>
	
		<g id="armRight_FL_FL_FL_FL_FL_FL_FL_FL_FL_FL_FL_FL_FL_FL_FL_FL" transform="matrix( 0.168670654296875, 0.9856719970703125, 0.9856719970703125, -0.168670654296875, 125.55,284.35) ">
		<g transform="matrix( 1, 0, 0, 1, 0,0) ">
			<g>
				<g id="Symbol_8_0_Layer0_0_FILL_00000132769471105562181990000005801317853232949944_">
					<path class="st20" d="M-184.23-38.7c0.01-0.07,0.02-0.14,0.02-0.2l-15.12-0.76c-0.93,1.7-0.77,3.56,0.47,5.59l1.02-0.33
						L-184.23-38.7z"/>
					<path class="st21" d="M-183.69-38.87l0.12-2.99l-15.64-0.84c-0.81,0.51-0.84,1.52-0.11,3.04l15.12,0.76L-183.69-38.87z"/>
					<path class="st22" d="M-197.84-34.41c0.21,3.62,0.66,7.19,1.34,10.72c2.27,1.65,4.92,2.57,7.97,2.75
						c2.43-5.6,3.86-11.52,4.3-17.75L-197.84-34.41z"/>
					<path class="st23" d="M-185.41-51.26c-1.46-1.63-3.26-2.48-5.43-2.57l-0.05,0.01c-0.41-0.01-0.79,0-1.15,0.05
						c-3.35,0.33-5.75,4.02-7.18,11.07l15.64,0.84l0.18-3.65C-183.28-47.68-183.95-49.6-185.41-51.26z"/>
				</g>
			</g>
		</g>
	</g>
	
		<g id="handRight_FL_FL_FL_FL_FL_FL_FL_FL_FL_FL_FL_FL_FL_FL_FL_FL" transform="matrix( 0.168670654296875, 0.9856719970703125, 0.9856719970703125, -0.168670654296875, 150.8,281.3) ">
		<g transform="matrix( 1, 0, 0, 1, 0,0) ">
			<g>
				<g id="Symbol_9_0_Layer0_0_FILL_00000018218196459960950620000008629458596427770542_">
					<path class="st22" d="M-182.6-49.75c-1.62-3.12-3.33-5.3-5.14-6.54l-9.24,3.77c-0.77,0.3-1.02,0.81-0.76,1.51l0.22,0.53
						c2.83,7.77,6.44,10.76,10.85,8.98c1.57-0.61,3.09-1.43,4.57-2.46c0.99-0.67,1.33-1.38,1.03-2.15l-0.08-0.24
						c-0.39-0.92-0.77-1.82-1.15-2.67l0.01,0.05L-182.6-49.75 M-195.69-49.21c-0.07-0.29,0.24-0.72,0.94-1.28
						c0.67-0.56,1.54-1.11,2.61-1.65c1.11-0.51,2.05-0.87,2.84-1.07c0.85-0.18,1.31-0.14,1.38,0.12c0.1,0.29-0.18,0.71-0.84,1.27
						c-0.66,0.59-1.55,1.16-2.65,1.71c-1.07,0.54-2.02,0.9-2.84,1.07C-195.11-48.87-195.59-48.92-195.69-49.21z"/>
					<path class="st24" d="M-194.75-50.49c-0.7,0.56-1.01,0.99-0.94,1.28c0.1,0.29,0.58,0.34,1.43,0.17
						c0.82-0.17,1.76-0.53,2.84-1.07c1.11-0.55,1.99-1.12,2.65-1.71c0.67-0.56,0.95-0.98,0.84-1.27c-0.07-0.26-0.53-0.3-1.38-0.12
						c-0.78,0.2-1.73,0.56-2.84,1.07C-193.21-51.6-194.08-51.05-194.75-50.49 M-182.31-49.04c1.68-3.14-0.14-5.56-5.43-7.26
						c1.81,1.24,3.52,3.42,5.14,6.54l0.3,0.77L-182.31-49.04z"/>
				</g>
			</g>
		</g>
	</g>
	
		<g id="body_FL_FL_FL_FL_FL_FL_FL_FL_FL_FL_FL_FL_FL_FL" transform="matrix( 0.4500732421875, -0.654541015625, 0.947845458984375, 0.3809814453125, 127.55,300.75) ">
		<g transform="matrix( 1, 0, 0, 1, 0,0) ">
			<g>
				<g id="Symbol_10_0_Layer0_0_FILL_00000110441920503710575540000007544436193530135964_">
					<path class="st25" d="M193.95-156.43l0.69-4.13l-24.65-2.63l-10.54-1.13l-2.36-0.25l-0.69,4.13L193.95-156.43 M168.87-188.81
						c-0.29-0.83-0.63-1.69-1.04-2.6l-6.16-0.66l-2.97,17.81c8.53-0.61,12.24-4.25,11.13-10.91l-2.01-1.46
						C168.05-187.41,168.4-188.14,168.87-188.81 M199.22-188.07l-5.87-0.63c0.54,2.24,0.36,4.5-0.54,6.8
						c-1.47,4.1-0.15,6.96,3.96,8.58L199.22-188.07z"/>
					<path class="st26" d="M180.44-177.71l12.9-10.98l-22.34-2.38L180.44-177.71z"/>
					<path class="st21" d="M192.8-181.9c0.9-2.29,1.09-4.56,0.54-6.8l-12.9,10.98L192.8-181.9 M168.87-188.81
						c-0.47,0.68-0.82,1.4-1.05,2.17l2.01,1.46l10.61,7.47l-9.43-13.37C170.15-190.41,169.43-189.65,168.87-188.81z"/>
					<path class="st23" d="M169.83-185.18c1.11,6.66-2.6,10.3-11.13,10.91l-1.61,9.69l2.36,0.25l7.84-4.41l2.7,5.53l24.65,2.63
						l2.12-12.76c-4.11-1.62-5.43-4.47-3.96-8.58l-12.36,4.19L169.83-185.18 M180.94-173.92c-0.27-0.34-0.37-0.71-0.3-1.12
						s0.29-0.77,0.67-1.07c0.34-0.28,0.7-0.39,1.09-0.35c0.39,0.04,0.7,0.23,0.93,0.57c0.23,0.37,0.31,0.76,0.25,1.17
						s-0.27,0.75-0.61,1.03c-0.34,0.28-0.7,0.39-1.09,0.35C181.49-173.39,181.18-173.58,180.94-173.92 M178.91-169.67
						c2.31,0.25,4.25,0.68,5.81,1.3c1.4,0.6,2.14,1.18,2.21,1.74l-16.7-1.78c0.22-0.53,1.1-0.94,2.65-1.22
						C174.59-169.91,176.6-169.92,178.91-169.67 M167.83-191.42c0.4,0.91,0.75,1.78,1.04,2.6c0.56-0.84,1.28-1.59,2.14-2.26
						L167.83-191.42z"/>
					<path class="st27" d="M184.72-168.37c-1.56-0.62-3.5-1.05-5.81-1.3c-2.31-0.25-4.32-0.24-6.03,0.03
						c-1.55,0.28-2.43,0.69-2.65,1.22l16.7,1.78C186.86-167.19,186.12-167.77,184.72-168.37z"/>
					<path class="st20" d="M180.64-175.04c-0.07,0.41,0.03,0.78,0.3,1.12c0.24,0.34,0.55,0.53,0.93,0.57
						c0.39,0.04,0.75-0.08,1.09-0.35c0.34-0.28,0.54-0.62,0.61-1.03s-0.01-0.8-0.25-1.17c-0.24-0.34-0.55-0.53-0.93-0.57
						c-0.39-0.04-0.75,0.08-1.09,0.35C180.93-175.81,180.7-175.45,180.64-175.04 M167.29-168.73l-7.84,4.41l10.54,1.13
						L167.29-168.73z"/>
				</g>
			</g>
		</g>
	</g>
	
		<g id="armLeft_FL_FL_FL_FL_FL_FL_FL_FL_FL_FL_FL_FL_FL_FL_FL" transform="matrix( 0.7070770263671875, 0.70709228515625, -0.70709228515625, 0.7070770263671875, 108.1,298.95) ">
		<g transform="matrix( 1, 0, 0, 1, 0,0) ">
			<g>
				<g id="Symbol_8_0_Layer0_0_FILL_00000136375151213996246960000016795115402430726825_">
					<path class="st20" d="M-181.55-62.66c0.03-0.06,0.05-0.13,0.08-0.19l-14.43-4.6c-1.33,1.4-1.66,3.24-0.97,5.52l1.07-0.06
						L-181.55-62.66z"/>
					<path class="st21" d="M-180.99-62.69l0.88-2.86l-14.9-4.81c-0.91,0.28-1.21,1.26-0.88,2.91l14.43,4.6L-180.99-62.69z"/>
					<path class="st22" d="M-195.8-62c-0.72,3.55-1.2,7.12-1.44,10.7c1.77,2.18,4.1,3.74,7,4.69c3.78-4.8,6.68-10.15,8.69-16.06
						L-195.8-62z"/>
					<path class="st23" d="M-179.48-75.1c-0.99-1.94-2.52-3.24-4.59-3.87l-0.05-0.01c-0.39-0.12-0.76-0.2-1.13-0.25
						c-3.33-0.53-6.58,2.42-9.77,8.86l14.9,4.81l1.11-3.49C-178.33-71.1-178.49-73.12-179.48-75.1z"/>
				</g>
			</g>
		</g>
	</g>
	
		<g id="handLeft_FL_FL_FL_FL_FL_FL_FL_FL_FL_FL_FL_FL_FL_FL_FL" transform="matrix( 0.8659820556640625, 0.5, -0.499969482421875, 0.865997314453125, 92.15,318.25) ">
		<g transform="matrix( 1, 0, 0, 1, 0,0) ">
			<g>
				<g id="Symbol_9_0_Layer0_0_FILL_00000133517596566766178460000012477525434935828631_">
					<path class="st22" d="M-158.54-119.7c-0.76-3.43-1.86-5.97-3.29-7.64l-9.9,1.28c-0.82,0.1-1.19,0.52-1.12,1.27l0.08,0.56
						c0.74,8.23,3.48,12.05,8.19,11.45c1.67-0.19,3.35-0.59,5.05-1.21c1.13-0.39,1.64-1,1.55-1.82l-0.02-0.25
						c-0.14-0.99-0.28-1.95-0.43-2.88l-0.01,0.05L-158.54-119.7 M-171.33-122.52c0.01-0.3,0.42-0.63,1.24-1
						c0.79-0.37,1.77-0.68,2.94-0.93c1.2-0.21,2.21-0.32,3.02-0.31c0.87,0.05,1.3,0.2,1.3,0.47c0.03,0.31-0.35,0.64-1.14,1.01
						c-0.79,0.4-1.79,0.73-3,0.97c-1.18,0.25-2.18,0.36-3.02,0.31C-170.86-122.04-171.31-122.21-171.33-122.52z"/>
					<path class="st24" d="M-170.09-123.52c-0.82,0.36-1.23,0.7-1.24,1c0.03,0.31,0.48,0.48,1.34,0.53
						c0.83,0.04,1.84-0.06,3.02-0.31c1.21-0.25,2.21-0.57,3-0.97c0.79-0.37,1.17-0.71,1.14-1.01c0-0.27-0.43-0.43-1.3-0.47
						c-0.81,0-1.81,0.1-3.02,0.31C-168.33-124.2-169.31-123.89-170.09-123.52 M-158.44-118.93c2.42-2.61,1.29-5.41-3.39-8.41
						c1.43,1.67,2.53,4.21,3.29,7.64l0.1,0.82L-158.44-118.93z"/>
				</g>
			</g>
		</g>
	</g>
	<g transform="matrix( 0.9857025146484375, -0.168243408203125, 0.168243408203125, 0.9857025146484375, 111.7,294.95) ">
		<g transform="matrix( 1, 0, 0, 1, 0,0) ">
			<g>
				<g id="Symbol_15_0_Layer0_0_MEMBER_0_FILL_00000088106777943209305410000006894809973402380981_">
					<path class="st28" d="M-41.78-188.56c1.26-0.61,2.18-1.36,2.76-2.26l-19.04-2.48c0.34,1.02,1.04,1.98,2.09,2.89
						c1.78,1.54,4.06,2.49,6.84,2.86C-46.34-187.19-43.89-187.52-41.78-188.56z"/>
					<path class="st22" d="M-33.31-198.2c2.94,1.46,5.05,0.19,6.34-3.81c0.27-1.78,0.48-3.58,0.65-5.41
						c0.17-2.33,0.23-4.71,0.17-7.14c-0.05-3-1.54-4.69-4.48-5.07l-30.1-3.91c-2.91-0.38-4.79,0.91-5.64,3.85
						c-0.7,2.53-1.27,5.1-1.71,7.69c1.18,7.72,3.59,11.01,7.24,9.87c0.8-0.2,1.61-0.36,2.43-0.49c3.4-0.57,7.13-0.58,11.2-0.06
						C-41.78-201.97-37.15-200.48-33.31-198.2z"/>
					<path class="st20" d="M-28.6-194.51c0.69-2.46,1.23-4.97,1.63-7.5c-1.29,4-3.41,5.27-6.34,3.81
						c-3.84-2.28-8.47-3.77-13.89-4.48c-4.07-0.53-7.8-0.51-11.2,0.06c-0.82,0.13-1.63,0.29-2.43,0.49
						c-3.64,1.14-6.06-2.15-7.24-9.87c-0.71,4.18-1.03,8.42-0.95,12.73c0.02,0.37,0.06,0.71,0.12,1.02c0.04,0.48,0.15,0.91,0.33,1.3
						c0.63,1.59,1.97,2.53,4.02,2.79l6.5,0.84l19.04,2.48l4.56,0.59c2.78,0.36,4.62-0.74,5.52-3.32c0.06-0.19,0.12-0.37,0.17-0.53
						C-28.7-194.24-28.65-194.38-28.6-194.51z"/>
				</g>
			</g>
		</g>
		<g transform="matrix( 1, 0, 0, 1, 0,0) ">
			<g>
				<g id="Symbol_15_0_Layer0_1_FILL_00000049903330219273512570000000557163036379649968_">
					<path class="st29" d="M-38.88-213.14l-0.22,3.25l8.72-1.14C-32.51-213.05-35.34-213.76-38.88-213.14 M-48.78-213.02l0.62-3.25
						c-3.26-1.53-6.18-1.58-8.76-0.13L-48.78-213.02z"/>
					<path class="st11" d="M-39.59-197.2c0.28-0.06,0.5-0.2,0.66-0.42c0.13-0.22,0.18-0.46,0.15-0.74
						c-0.06-0.28-0.21-0.48-0.42-0.61c-0.21-0.16-0.46-0.23-0.73-0.2c-3.68,0.66-6.72-0.02-9.11-2.04c-0.21-0.2-0.45-0.28-0.72-0.25
						c-0.27,0-0.48,0.11-0.65,0.32c-0.2,0.21-0.28,0.45-0.25,0.72c0,0.27,0.1,0.5,0.31,0.7C-47.55-197.26-43.96-196.42-39.59-197.2z
						"/>
					<path class="st9" d="M-50.71-210.6c-0.57-0.81-1.36-1.29-2.39-1.42c-1.02-0.13-1.95,0.12-2.77,0.75
						c-0.76,0.67-1.21,1.52-1.34,2.55c-0.13,1.02,0.08,1.94,0.65,2.76c0.63,0.85,1.45,1.35,2.48,1.48c1.02,0.13,1.92-0.14,2.68-0.81
						c0.82-0.63,1.3-1.46,1.43-2.49S-50.08-209.74-50.71-210.6 M-32.27-208.2c-0.57-0.81-1.36-1.29-2.39-1.42
						c-1.02-0.13-1.95,0.12-2.77,0.75c-0.76,0.67-1.21,1.52-1.34,2.55s0.08,1.94,0.65,2.76c0.63,0.85,1.45,1.35,2.48,1.48
						c1.02,0.13,1.92-0.14,2.68-0.81c0.82-0.63,1.3-1.46,1.43-2.49C-31.39-206.4-31.64-207.34-32.27-208.2z"/>
				</g>
			</g>
		</g>
		<g transform="matrix( 1, 0, 0, 1, 0,0) ">
			<g>
				<g id="Symbol_15_0_Layer0_1_MEMBER_0_FILL_00000024715754046529652150000008445286588602892469_">
					<path class="st11" d="M-51.64-205.78c0.51-0.54,0.82-1.24,0.93-2.1c0.11-0.86-0.01-1.63-0.35-2.32
						c-0.32-0.65-0.78-1.01-1.37-1.09c-0.59-0.08-1.15,0.15-1.65,0.69c-0.48,0.58-0.77,1.29-0.89,2.15
						c-0.11,0.86-0.01,1.61,0.31,2.26c0.35,0.68,0.82,1.06,1.41,1.14C-52.65-204.95-52.12-205.2-51.64-205.78 M-34.93-203.6
						c0.51-0.54,0.82-1.24,0.93-2.1c0.11-0.86-0.01-1.63-0.35-2.32c-0.32-0.65-0.78-1.01-1.37-1.09c-0.59-0.08-1.15,0.15-1.65,0.69
						c-0.48,0.58-0.77,1.29-0.89,2.15c-0.11,0.86-0.01,1.61,0.31,2.26c0.35,0.68,0.82,1.06,1.41,1.14
						C-35.94-202.78-35.41-203.03-34.93-203.6z"/>
				</g>
			</g>
		</g>
		<g transform="matrix( 1, 0, 0, 1, 0,0) ">
			<g>
				<g id="Symbol_15_0_Layer0_2_FILL_00000121262951315448021130000017639807004044518272_">
					<path class="st30" d="M-27.75-237.86c0.45-0.37,0.99-0.57,1.59-0.6c-5.58-1.57-12.3-1.42-20.18,0.45
						c-0.17,0.01-0.34,0.04-0.52,0.08c-3.91,0.63-8.45,1.76-13.6,3.37l-1.64,2.91l-2.9-1.74l-3.85,6.31
						c-2.5,4.72-2.36,11.46,0.4,20.22l7.87-14C-53.38-230.45-42.44-236.12-27.75-237.86 M-29.24-234.93l1.65,19.12l1.33,8.39
						l3.25-16.47L-29.24-234.93z"/>
					<path class="st29" d="M-42.89-218c4.63,1.67,9.73,2.4,15.3,2.19l-1.65-19.12c0.32-1.37,0.82-2.35,1.49-2.93
						c-14.69,1.74-25.62,7.41-32.82,17.01c3.76-1.36,7.49-1.36,11.19-0.01c1.92,0.84,3.45,2.23,4.6,4.18L-42.89-218z"/>
				</g>
			</g>
		</g>
	</g>
</g>
<g>
	
		<g id="legLeft_FL_FL_FL_FL_FL_FL_FL_FL_FL_FL_FL_FL_FL_FL_FL_FL_FL" transform="matrix( -0.86602783203125, -0.499969482421875, -0.499969482421875, 0.86602783203125, 198.55,309.4) ">
		<g transform="matrix( 1, 0, 0, 1, 0,0) ">
			<g>
				<g id="Symbol_11_0_Layer0_0_FILL_00000111900173080830282910000006819132489596175516_">
					<path class="st25" d="M187.14-155.35l-0.55-5.9c-0.22-2.17-1.09-3.97-2.6-5.4c-1.45-1.33-3.13-2-5.05-2h-0.05
						c-1.93,0-3.59,0.67-5,2c-1.47,1.43-2.28,3.23-2.45,5.4l-0.4,5.9H187.14z"/>
					<path class="st31" d="M187.54-151.65l-0.4-3.7h-16.1l-0.25,3.65v0.05h16.7H187.54z"/>
					<path class="st32" d="M188.09-145.65l-0.6-6h-16.7v-0.05c-1.17,0.71-2.31,1.82-3.4,3.35l-0.25,2.7L188.09-145.65z"/>
				</g>
			</g>
		</g>
	</g>
	
		<g id="armRight_FL_FL_FL_FL_FL_FL_FL_FL_FL_FL_FL_FL_FL_FL_FL_FL_FL_FL_FL_FL" transform="matrix( 0.915496826171875, 0.402313232421875, 0.402313232421875, -0.915496826171875, 222.45,271.25) ">
		<g transform="matrix( 1, 0, 0, 1, 0,0) ">
			<g>
				<g id="Symbol_8_0_Layer0_0_FILL_00000102502433892566851100000013555952114043149713_">
					<path class="st22" d="M-168.64,190.52l0.1,12.7c1.89,1.54,4.14,2.56,6.75,3.05c0.98-5.44,2.83-10.61,5.55-15.5L-168.64,190.52z
						"/>
					<path class="st33" d="M-156.24,190.77c0.34-0.58,0.69-1.16,1.05-1.75l-13.5-2.45l0.05,3.95L-156.24,190.77z"/>
					<path class="st34" d="M-155.19,189.02l0.5,0.1l0.5-2.95l-15.4-2.85c-0.87,0.4-1.03,1.4-0.5,3l1.4,0.25L-155.19,189.02z"/>
					<path class="st35" d="M-154.79,176.62c-1.23-1.8-2.92-2.88-5.05-3.25h-0.05c-0.4-0.07-0.78-0.1-1.15-0.1
						c-3.37-0.1-6.22,3.25-8.55,10.05l15.4,2.85l0.65-3.6C-153.14,180.43-153.56,178.45-154.79,176.62z"/>
				</g>
			</g>
		</g>
	</g>
	
		<g id="armLeft_FL_FL_FL_FL_FL_FL_FL_FL_FL_FL_FL_FL_FL_FL_FL_FL_FL_FL" transform="matrix( 0.7775726318359375, 0.628753662109375, -0.628753662109375, 0.7775726318359375, 189.35,282.35) ">
		<g transform="matrix( 1, 0, 0, 1, 0,0) ">
			<g>
				<g id="Symbol_8_0_Layer0_0_FILL_00000091730453436021705420000003816756850895295134_">
					<path class="st22" d="M-210.38-121.53l0.1,12.7c1.89,1.54,4.14,2.56,6.75,3.05c0.98-5.44,2.83-10.61,5.55-15.5L-210.38-121.53z
						"/>
					<path class="st33" d="M-197.98-121.28c0.34-0.58,0.69-1.16,1.05-1.75l-13.5-2.45l0.05,3.95L-197.98-121.28z"/>
					<path class="st34" d="M-196.93-123.03l0.5,0.1l0.5-2.95l-15.4-2.85c-0.87,0.4-1.03,1.4-0.5,3l1.4,0.25L-196.93-123.03z"/>
					<path class="st35" d="M-196.53-135.43c-1.23-1.8-2.92-2.88-5.05-3.25h-0.05c-0.4-0.07-0.78-0.1-1.15-0.1
						c-3.37-0.1-6.22,3.25-8.55,10.05l15.4,2.85l0.65-3.6C-194.88-131.61-195.3-133.6-196.53-135.43z"/>
				</g>
			</g>
		</g>
	</g>
	
		<g id="body_FL_FL_FL_FL_FL_FL_FL_FL_FL_FL_FL_FL_FL_FL_FL_FL_FL_FL" transform="matrix( 0.8961029052734375, -0.1512908935546875, 0, 1, 207.35,295.15) ">
		<g transform="matrix( 1, 0, 0, 1, 0,0) ">
			<g>
				<g id="Symbol_10_0_Layer0_0_FILL_00000148644636374463280160000016301243182480542336_">
					<path class="st36" d="M-99.98-236.21c0.62,1.75,1.79,3.11,3.5,4.1c9.5-1.58,19-1.58,28.5,0c1.27-1.11,2.18-2.48,2.75-4.1
						C-76.67-237.41-88.25-237.41-99.98-236.21z"/>
					<path class="st35" d="M-64.58-242.81L-64.58-242.81c-0.93-6.13-0.38-12.9,1.65-20.3l-39,0c2.57,7.17,3.14,14.18,1.7,21.05
						c-0.37,2.28-0.29,4.23,0.25,5.85c11.73-1.2,23.31-1.2,34.75,0C-64.56-238.06-64.34-240.26-64.58-242.81z"/>
				</g>
			</g>
		</g>
		<g transform="matrix( 1, 0, 0, 1, 0.2,0) ">
			<g>
				<g id="Symbol_10_0_Layer0_1_FILL_00000059276608015125722660000007570268007508954753_">
					<path class="st34" d="M-68.88-257.71c-0.23-0.27-0.47-0.53-0.7-0.8c-0.07-0.1-0.17-0.15-0.3-0.15c-0.1,0-0.2,0.03-0.3,0.1
						s-0.15,0.17-0.15,0.3c-0.07,0.1-0.07,0.22,0,0.35c0.43,0.97,0.47,1.97,0.1,3v-0.05c-0.57,1.47-1.75,2.52-3.55,3.15
						c-1.8,0.6-3.72,0.63-5.75,0.1c-0.17-0.1-0.35-0.17-0.55-0.2c-0.1-0.03-0.18-0.02-0.25,0.05c-0.13,0.07-0.22,0.15-0.25,0.25
						c-0.03,0.1-0.03,0.22,0,0.35c0,0.1,0.05,0.18,0.15,0.25c0.87,0.7,1.95,1.25,3.25,1.65h-0.05c2.03,0.67,3.97,0.7,5.8,0.1
						c1.87-0.67,3.07-1.85,3.6-3.55v0.05C-67.33-254.36-67.68-256.01-68.88-257.71 M-94.98-257.36c-0.1,0-0.18,0.05-0.25,0.15
						c-0.3,0.3-0.52,0.6-0.65,0.9c-1.27,1.77-1.62,3.43-1.05,5v-0.05c0.47,1.7,1.65,2.77,3.55,3.2c1.83,0.43,3.78,0.2,5.85-0.7
						c1.2-0.53,2.25-1.18,3.15-1.95c0.1-0.07,0.17-0.15,0.2-0.25c0-0.13-0.02-0.25-0.05-0.35c-0.03-0.1-0.1-0.18-0.2-0.25
						c-0.13-0.07-0.23-0.08-0.3-0.05c-0.2,0.03-0.37,0.1-0.5,0.2c-2.07,0.8-4.02,0.98-5.85,0.55c-1.77-0.43-2.93-1.33-3.5-2.7
						c-0.37-0.97-0.35-1.97,0.05-3c0.03-0.1,0.05-0.2,0.05-0.3c-0.03-0.13-0.08-0.23-0.15-0.3
						C-94.73-257.32-94.85-257.36-94.98-257.36z"/>
				</g>
			</g>
		</g>
	</g>
	
		<g id="handLeft_FL_FL_FL_FL_FL_FL_FL_FL_FL_FL_FL_FL_FL_FL_FL_FL_FL_FL" transform="matrix( 0.7437591552734375, 0.668426513671875, -0.668426513671875, 0.7437591552734375, 172.55,304.85) ">
		<g transform="matrix( 1, 0, 0, 1, 0,0) ">
			<g>
				<g id="Symbol_9_0_Layer0_0_FILL_00000031919086769587400300000004783459792661419164_">
					<path class="st24" d="M-203.62-122.12v-0.05c2.07-2.9,0.58-5.53-4.45-7.9c1.63,1.47,3.05,3.85,4.25,7.15L-203.62-122.12
						 M-216.87-124.07c0.07,0.3,0.53,0.42,1.4,0.35c0.83-0.07,1.82-0.3,2.95-0.7c1.17-0.4,2.12-0.85,2.85-1.35
						c0.73-0.47,1.07-0.85,1-1.15c-0.03-0.27-0.48-0.37-1.35-0.3c-0.8,0.1-1.78,0.33-2.95,0.7c-1.13,0.4-2.07,0.83-2.8,1.3
						C-216.54-124.75-216.91-124.37-216.87-124.07z"/>
					<path class="st22" d="M-203.62-122.17v0.05l-0.2-0.8c-1.2-3.3-2.62-5.68-4.25-7.15l-9.65,2.55c-0.8,0.2-1.12,0.67-0.95,1.4
						l0.15,0.55c1.8,8.07,5,11.5,9.6,10.3c1.63-0.4,3.25-1.02,4.85-1.85c1.07-0.53,1.5-1.2,1.3-2l-0.05-0.25
						C-203.09-120.33-203.36-121.27-203.62-122.17 M-215.47-123.72c-0.87,0.07-1.33-0.05-1.4-0.35c-0.03-0.3,0.33-0.68,1.1-1.15
						c0.73-0.47,1.67-0.9,2.8-1.3c1.17-0.37,2.15-0.6,2.95-0.7c0.87-0.07,1.32,0.03,1.35,0.3c0.07,0.3-0.27,0.68-1,1.15
						c-0.73,0.5-1.68,0.95-2.85,1.35C-213.66-124.02-214.64-123.78-215.47-123.72z"/>
				</g>
			</g>
		</g>
	</g>
	
		<g id="handRight_FL_FL_FL_FL_FL_FL_FL_FL_FL_FL_FL_FL_FL_FL_FL_FL_FL_FL_FL" transform="matrix( 0.602294921875, 0.7982330322265625, 0.7982330322265625, -0.602294921875, 233.95,251.9) ">
		<g transform="matrix( 1, 0, 0, 1, 0,0) ">
			<g>
				<g id="Symbol_9_0_Layer0_0_FILL_00000125573305402745220450000012531273313757082752_">
					<path class="st24" d="M-222.92,77.9v-0.05c2.07-2.9,0.58-5.53-4.45-7.9c1.63,1.47,3.05,3.85,4.25,7.15L-222.92,77.9
						 M-236.17,75.95c0.07,0.3,0.53,0.42,1.4,0.35c0.83-0.07,1.82-0.3,2.95-0.7c1.17-0.4,2.12-0.85,2.85-1.35
						c0.73-0.47,1.07-0.85,1-1.15c-0.03-0.27-0.48-0.37-1.35-0.3c-0.8,0.1-1.78,0.33-2.95,0.7c-1.13,0.4-2.07,0.83-2.8,1.3
						C-235.83,75.26-236.2,75.65-236.17,75.95z"/>
					<path class="st22" d="M-222.92,77.85v0.05l-0.2-0.8c-1.2-3.3-2.62-5.68-4.25-7.15l-9.65,2.55c-0.8,0.2-1.12,0.67-0.95,1.4
						l0.15,0.55c1.8,8.07,5,11.5,9.6,10.3c1.63-0.4,3.25-1.02,4.85-1.85c1.07-0.53,1.5-1.2,1.3-2l-0.05-0.25
						C-222.38,79.68-222.65,78.75-222.92,77.85 M-234.77,76.3c-0.87,0.07-1.33-0.05-1.4-0.35c-0.03-0.3,0.33-0.68,1.1-1.15
						c0.73-0.47,1.67-0.9,2.8-1.3c1.17-0.37,2.15-0.6,2.95-0.7c0.87-0.07,1.32,0.03,1.35,0.3c0.07,0.3-0.27,0.68-1,1.15
						c-0.73,0.5-1.68,0.95-2.85,1.35C-232.95,76-233.93,76.23-234.77,76.3z"/>
				</g>
			</g>
		</g>
	</g>
	
		<g id="legRight_FL_FL_FL_FL_FL_FL_FL_FL_FL_FL_FL_FL_FL_FL_FL_FL_FL" transform="matrix( -0.8993072509765625, -0.2700347900390625, -0.2588043212890625, 0.9659271240234375, 220.15,300.9) ">
		<g transform="matrix( 1, 0, 0, 1, 0,0) ">
			<g>
				<g id="Symbol_11_0_Layer0_0_FILL_00000071524348634478399260000006617360479951473034_">
					<path class="st25" d="M147.78-192.28l-0.55-5.9c-0.22-2.17-1.09-3.97-2.6-5.4c-1.45-1.33-3.13-2-5.05-2h-0.05
						c-1.93,0-3.59,0.67-5,2c-1.47,1.43-2.28,3.23-2.45,5.4l-0.4,5.9L147.78-192.28z"/>
					<path class="st31" d="M148.18-188.58l-0.4-3.7l-16.1,0l-0.25,3.65v0.05h16.7H148.18z"/>
					<path class="st32" d="M148.73-182.58l-0.6-6h-16.7v-0.05c-1.17,0.71-2.31,1.82-3.4,3.35l-0.25,2.7H148.73z"/>
				</g>
			</g>
		</g>
	</g>
	<g transform="matrix( 0.990966796875, -0.133819580078125, 0.133819580078125, 0.990966796875, 203.2,278.4) ">
		<g transform="matrix( 1, 0, 0, 1, 0,0) ">
			<g>
				<g id="Symbol_15_0_Layer0_0_FILL_00000039095032845798784700000008127104328948457882_">
					<path class="st28" d="M-36.33-234.3c1.17-0.77,1.98-1.63,2.45-2.6l-19.2,0c0.47,0.97,1.28,1.83,2.45,2.6
						c1.97,1.3,4.35,1.95,7.15,1.95S-38.29-233-36.33-234.3z"/>
					<path class="st22" d="M-24.18-262.1c-0.43-2.97-2.17-5.85-5.2-8.65c-9.23-8.58-19.31-7.18-30.25,4.2
						c-2.93,0-4.63,1.52-5.1,4.55c-0.63,4.32-0.93,8.03-0.9,11.15c2.25,6.28,6.43,10.93,12.55,13.95l19.2,0
						c5.26-2.69,8.76-7.02,10.5-13C-23.29-253.91-23.55-257.97-24.18-262.1z"/>
				</g>
			</g>
		</g>
		<g transform="matrix( 1, 0, 0, 1, 0,0) ">
			<g>
				<g id="Symbol_15_0_Layer0_1_FILL_00000142876153429784136090000004369949014896439436_">
					<path class="st31" d="M-52.03-262.8c1.73-1.73,2.6-3.83,2.6-6.3c0-2.47-0.87-4.57-2.6-6.3c-1.73-1.73-3.83-2.6-6.3-2.6
						c-2.47,0-4.57,0.87-6.3,2.6c-1.73,1.73-2.6,3.83-2.6,6.3c0,2.47,0.87,4.57,2.6,6.3c1.73,1.73,3.83,2.6,6.3,2.6
						C-55.86-260.2-53.76-261.07-52.03-262.8z"/>
				</g>
			</g>
		</g>
		<g transform="matrix( 1, 0, 0, 1, 0,0) ">
			<g>
				<g id="Symbol_15_0_Layer0_2_FILL_00000003789372435972608150000018304619316836146050_">
					<path class="st37" d="M-51.73-253.55c0.6-0.67,1.35-1.03,2.25-1.1l-5.35-0.2l2.05,4.8c-0.03-0.27-0.05-0.53-0.05-0.8
						C-52.83-251.88-52.46-252.78-51.73-253.55 M-32.68-254.65c0.9,0.07,1.65,0.43,2.25,1.1c0.73,0.77,1.1,1.67,1.1,2.7
						c0,0.27-0.02,0.53-0.05,0.8l2.05-4.8L-32.68-254.65z"/>
					<path class="st9" d="M-49.18-254.65c-0.1,0-0.2,0-0.3,0c-0.9,0.07-1.65,0.43-2.25,1.1c-0.73,0.77-1.1,1.67-1.1,2.7
						c0,0.27,0.02,0.53,0.05,0.8c0.17,0.7,0.52,1.32,1.05,1.85c0.67,0.77,1.52,1.15,2.55,1.15s1.92-0.38,2.65-1.15
						c0.67-0.73,1-1.62,1-2.65c0-1.03-0.33-1.93-1-2.7C-47.26-254.28-48.14-254.65-49.18-254.65 M-50.33-250.95
						c0.03-0.6,0.25-1.12,0.65-1.55s0.9-0.65,1.5-0.65s1.12,0.22,1.55,0.65c0.37,0.43,0.57,0.95,0.6,1.55v0.25
						c-0.03,0.57-0.23,1.05-0.6,1.45c-0.43,0.47-0.95,0.7-1.55,0.7c-0.6,0-1.1-0.23-1.5-0.7c-0.4-0.4-0.62-0.88-0.65-1.45V-250.95
						 M-30.43-253.55c-0.6-0.67-1.35-1.03-2.25-1.1c-0.1,0-0.2,0-0.3,0c-1.03,0-1.92,0.37-2.65,1.1c-0.67,0.77-1,1.67-1,2.7
						c0,1.03,0.33,1.92,1,2.65c0.73,0.77,1.62,1.15,2.65,1.15s1.88-0.38,2.55-1.15c0.53-0.53,0.88-1.15,1.05-1.85
						c0.03-0.27,0.05-0.53,0.05-0.8C-29.33-251.88-29.69-252.78-30.43-253.55 M-31.83-250.95v0.25c-0.03,0.57-0.25,1.05-0.65,1.45
						c-0.4,0.47-0.9,0.7-1.5,0.7c-0.6,0-1.12-0.23-1.55-0.7c-0.37-0.4-0.57-0.88-0.6-1.45v-0.25c0.03-0.6,0.23-1.12,0.6-1.55
						c0.43-0.43,0.95-0.65,1.55-0.65c0.6,0,1.1,0.22,1.5,0.65C-32.08-252.07-31.86-251.55-31.83-250.95z"/>
					<path class="st11" d="M-49.68-252.5c-0.4,0.43-0.62,0.95-0.65,1.55v0.25c0.03,0.57,0.25,1.05,0.65,1.45
						c0.4,0.47,0.9,0.7,1.5,0.7c0.6,0,1.12-0.23,1.55-0.7c0.37-0.4,0.57-0.88,0.6-1.45v-0.25c-0.03-0.6-0.23-1.12-0.6-1.55
						c-0.43-0.43-0.95-0.65-1.55-0.65S-49.28-252.93-49.68-252.5 M-31.83-250.7v-0.25c-0.03-0.6-0.25-1.12-0.65-1.55
						c-0.4-0.43-0.9-0.65-1.5-0.65c-0.6,0-1.12,0.22-1.55,0.65c-0.37,0.43-0.57,0.95-0.6,1.55v0.25c0.03,0.57,0.23,1.05,0.6,1.45
						c0.43,0.47,0.95,0.7,1.55,0.7c0.6,0,1.1-0.23,1.5-0.7C-32.08-249.65-31.86-250.13-31.83-250.7z"/>
				</g>
			</g>
		</g>
		<g transform="matrix( 0.9659271240234375, -0.2588043212890625, 0.2588043212890625, 0.9659271240234375, 5.45,2.15) ">
			<g>
				<g id="Symbol_15_0_Layer0_2_MEMBER_0_FILL_00000154410816111558111290000014351571966334117527_">
					<path class="st25" d="M32.19-259.12c1,0.2,1.85,0.42,2.55,0.65c-1.67-1.83-3.87-2.98-6.6-3.45c-0.33-0.07-0.58-0.03-0.75,0.1
						c-0.23,0.13-0.38,0.35-0.45,0.65c-0.03,0.27,0.02,0.53,0.15,0.8C27.22-260.2,28.92-259.79,32.19-259.12z"/>
				</g>
			</g>
		</g>
		<g transform="matrix( 0.9659271240234375, 0.2588043212890625, -0.2588043212890625, 0.9659271240234375, -5.6,2.8) ">
			<g>
				<g id="Symbol_15_0_Layer0_2_MEMBER_1_FILL_00000080171594896810811450000003386954359099007398_">
					<path class="st25" d="M-112.67-237.7c0.7-0.13,1.57-0.23,2.6-0.3c3.3-0.33,5.02-0.58,5.15-0.75c0.2-0.23,0.28-0.48,0.25-0.75
						c-0.03-0.33-0.15-0.55-0.35-0.65c-0.2-0.2-0.43-0.28-0.7-0.25C-108.52-240.23-110.83-239.33-112.67-237.7z"/>
				</g>
			</g>
		</g>
		<g transform="matrix( 1, 0, 0, 1, 0,0) ">
			<g>
				<g id="Symbol_15_0_Layer0_2_MEMBER_2_FILL_00000135672275115377365320000009515803031174101160_">
					<path class="st38" d="M-51.63-243.55c0.53-0.43,0.8-0.93,0.8-1.5c0-0.63-0.27-1.17-0.8-1.6c-0.47-0.4-1.03-0.6-1.7-0.6
						c-0.7,0-1.3,0.2-1.8,0.6c-0.47,0.43-0.7,0.97-0.7,1.6c0,0.57,0.23,1.07,0.7,1.5c0.5,0.43,1.1,0.65,1.8,0.65
						C-52.66-242.9-52.09-243.12-51.63-243.55z"/>
				</g>
			</g>
		</g>
		<g transform="matrix( 1, 0, 0, 1, 0,0) ">
			<g>
				<g id="Symbol_15_0_Layer0_2_MEMBER_3_FILL_00000074421586249391897160000005940930248161790103_">
					<path class="st38" d="M-27.08-243.55c0.53-0.43,0.8-0.93,0.8-1.5c0-0.63-0.27-1.17-0.8-1.6c-0.47-0.4-1.03-0.6-1.7-0.6
						c-0.7,0-1.3,0.2-1.8,0.6c-0.47,0.43-0.7,0.97-0.7,1.6c0,0.57,0.23,1.07,0.7,1.5c0.5,0.43,1.1,0.65,1.8,0.65
						C-28.11-242.9-27.54-243.12-27.08-243.55z"/>
				</g>
			</g>
		</g>
		<g transform="matrix( 0.7704925537109375, 0, 0, 0.7704925537109375, -42.3,-4.6) ">
			<g>
				<g id="Symbol_15_0_Layer0_2_MEMBER_4_FILL_00000029744984528377228200000000296597927560131255_">
					<path class="st11" d="M-3.66-311.73c-0.23-0.17-0.48-0.22-0.75-0.15c-0.27,0.03-0.47,0.17-0.6,0.4
						c-0.17,0.23-0.22,0.48-0.15,0.75c0.03,0.27,0.17,0.48,0.4,0.65c3.1,2.07,6.77,2.43,11,1.1c0.27-0.1,0.47-0.27,0.6-0.5
						c0.1-0.23,0.12-0.48,0.05-0.75c-0.1-0.27-0.27-0.45-0.5-0.55c-0.23-0.13-0.48-0.17-0.75-0.1
						C2.07-309.75-1.03-310.03-3.66-311.73z"/>
				</g>
			</g>
		</g>
		<g transform="matrix( 1, 0, 0, 1, 0,0) ">
			<g>
				<g id="Symbol_15_0_Layer0_3_FILL_00000017513716420104160510000008484821689621563806_">
					<path class="st39" d="M-35.98-276.9c-2.17-0.6-4-0.7-5.5-0.3c-2.03-0.6-4.05-0.85-6.05-0.75c-0.17-0.03-0.33-0.05-0.5-0.05
						c-0.37,0-0.68,0.03-0.95,0.1c-1.33,0.17-2.58,0.47-3.75,0.9c-5.2,1.73-9.33,5.35-12.4,10.85c-1.23,2.03-2.13,4.17-2.7,6.4
						c-0.63,2.03-1.02,4.15-1.15,6.35c0,0.23,0,0.52,0,0.85c0.1-1.9,0.45-3.75,1.05-5.55c0.6-2.2,1.52-4.35,2.75-6.45
						c3.8-6.73,9.2-10.67,16.2-11.8c0.37-0.07,0.73-0.08,1.1-0.05c2.1-0.07,4.23,0.2,6.4,0.8c1.47-0.47,3.32-0.38,5.55,0.25
						c7.37,2,11.83,7.08,13.4,15.25c0.07,1,0.18,2.03,0.35,3.1c-0.03-0.57-0.07-1.1-0.1-1.6c-0.1-1.13-0.23-2.22-0.4-3.25
						C-24.18-269.92-28.61-274.93-35.98-276.9z"/>
					<path class="st25" d="M-40.98-265.3c-0.33,0.77-0.65,1.53-0.95,2.3l13.95,4.15c2.58,0.9,3.43,3.19,2.55,6.85
						c-0.8,3.63-0.45,7.35,1.05,11.15c1.26-0.74,1.84-3.17,1.75-7.3l0.5-8.25c-0.03-0.2-0.05-0.4-0.05-0.6
						c-0.17-1.07-0.28-2.1-0.35-3.1c-1.57-8.17-6.03-13.25-13.4-15.25c-2.23-0.63-4.08-0.72-5.55-0.25c-2.17-0.6-4.3-0.87-6.4-0.8
						c-0.37-0.03-0.73-0.02-1.1,0.05c-7,1.13-12.4,5.07-16.2,11.8c-1.23,2.1-2.15,4.25-2.75,6.45c-0.6,1.8-0.95,3.65-1.05,5.55
						c0,0.13,0,0.3,0,0.5c0.43,9.44,3.78,14.56,10.05,15.35c-0.69-6.78,0.99-11.07,5.05-12.85l-2-7.95c5.63-1.2,10.87-4.7,15.7-10.5
						c0-0.07,0.03-0.1,0.1-0.1C-40.41-267.17-40.71-266.23-40.98-265.3z"/>
					<path class="st40" d="M-41.93-263c0.3-0.77,0.62-1.53,0.95-2.3c0.27-0.93,0.57-1.87,0.9-2.8c-0.07,0-0.1,0.03-0.1,0.1
						c-4.83,5.8-10.07,9.3-15.7,10.5l2,7.95v0.1C-48.84-251.82-44.86-256.33-41.93-263z"/>
				</g>
			</g>
		</g>
	</g>
</g>
<g>
	<g>
		<path class="st41" d="M75.59,179.74c-1.44,0-2.54-0.4-3.31-1.2c-0.77-0.8-1.15-1.9-1.15-3.31v-25.78c0-1.47,0.38-2.59,1.15-3.36
			s1.87-1.15,3.31-1.15c1.38,0,2.45,0.38,3.22,1.15s1.15,1.89,1.15,3.36v10.46h0.1l11.66-12.86c0.61-0.64,1.26-1.14,1.94-1.51
			c0.69-0.37,1.46-0.55,2.33-0.55c1.31,0,2.27,0.34,2.88,1.03c0.61,0.69,0.89,1.49,0.84,2.4c-0.05,0.91-0.44,1.75-1.18,2.52
			l-11.57,12.34l0.05-3.65l12.14,13.78c0.83,0.96,1.25,1.93,1.25,2.9c0,0.98-0.34,1.79-1.01,2.45c-0.67,0.66-1.63,0.98-2.88,0.98
			c-1.09,0-1.96-0.22-2.62-0.67s-1.35-1.1-2.09-1.97l-11.76-13.15h-0.1v11.28c0,1.41-0.38,2.51-1.13,3.31
			C78.08,179.34,77,179.74,75.59,179.74z"/>
		<path class="st41" d="M112.94,179.84c-1.82,0-3.44-0.34-4.85-1.03c-1.41-0.69-2.5-1.62-3.29-2.78c-0.79-1.17-1.18-2.5-1.18-4.01
			c0-1.73,0.45-3.09,1.34-4.08c0.9-0.99,2.34-1.7,4.34-2.14c2-0.43,4.65-0.65,7.94-0.65h2.64v3.98h-2.64c-1.25,0-2.27,0.1-3.07,0.29
			c-0.8,0.19-1.39,0.46-1.78,0.82c-0.38,0.35-0.58,0.83-0.58,1.44c0,0.74,0.26,1.34,0.77,1.82c0.51,0.48,1.28,0.72,2.3,0.72
			c0.77,0,1.46-0.18,2.09-0.53c0.62-0.35,1.13-0.84,1.51-1.46c0.38-0.62,0.58-1.35,0.58-2.18v-5.57c0-1.18-0.3-2.01-0.89-2.47
			c-0.59-0.46-1.59-0.7-3-0.7c-0.8,0-1.67,0.09-2.62,0.26c-0.94,0.18-2.02,0.49-3.24,0.94c-0.86,0.32-1.61,0.37-2.23,0.14
			c-0.62-0.22-1.09-0.6-1.39-1.13c-0.3-0.53-0.46-1.11-0.46-1.75s0.2-1.26,0.6-1.87c0.4-0.61,1.02-1.06,1.85-1.34
			c1.54-0.54,2.96-0.93,4.27-1.15c1.31-0.22,2.5-0.34,3.55-0.34c2.62,0,4.79,0.38,6.5,1.15s2.99,1.93,3.84,3.48
			c0.85,1.55,1.27,3.54,1.27,5.98v9.74c0,1.38-0.34,2.44-1.03,3.19c-0.69,0.75-1.66,1.13-2.9,1.13c-1.31,0-2.31-0.38-3-1.13
			s-1.03-1.82-1.03-3.19v-1.3l0.29,0.67c-0.16,0.99-0.53,1.86-1.1,2.62c-0.58,0.75-1.33,1.34-2.26,1.78
			C115.18,179.62,114.12,179.84,112.94,179.84z"/>
		<path class="st41" d="M136.26,151.81c-1.54,0-2.72-0.35-3.55-1.06c-0.83-0.7-1.25-1.71-1.25-3.02c0-1.34,0.42-2.37,1.25-3.07
			c0.83-0.7,2.02-1.06,3.55-1.06c1.5,0,2.67,0.35,3.5,1.06c0.83,0.7,1.25,1.73,1.25,3.07c0,1.31-0.42,2.32-1.25,3.02
			C138.94,151.45,137.77,151.81,136.26,151.81z M136.26,179.65c-1.41,0-2.47-0.39-3.19-1.18c-0.72-0.78-1.08-1.93-1.08-3.43v-15.22
			c0-1.5,0.36-2.65,1.08-3.43c0.72-0.78,1.78-1.18,3.19-1.18c1.34,0,2.39,0.39,3.14,1.18c0.75,0.78,1.13,1.93,1.13,3.43v15.22
			c0,1.5-0.37,2.65-1.1,3.43C138.7,179.26,137.64,179.65,136.26,179.65z"/>
		<path class="st41" d="M150.62,179.26c-1.44,0-2.55-0.39-3.34-1.18s-1.18-1.9-1.18-3.34v-24.91c0-1.44,0.38-2.54,1.15-3.31
			c0.77-0.77,1.87-1.15,3.31-1.15c1.38,0,2.45,0.38,3.22,1.15s1.15,1.87,1.15,3.31v22.08h11.76c1.22,0,2.14,0.31,2.78,0.94
			c0.64,0.62,0.96,1.53,0.96,2.71c0,1.18-0.32,2.1-0.96,2.74c-0.64,0.64-1.57,0.96-2.78,0.96H150.62z"/>
		<path class="st41" d="M177.88,151.81c-1.54,0-2.72-0.35-3.55-1.06c-0.83-0.7-1.25-1.71-1.25-3.02c0-1.34,0.42-2.37,1.25-3.07
			c0.83-0.7,2.02-1.06,3.55-1.06c1.5,0,2.67,0.35,3.5,1.06c0.83,0.7,1.25,1.73,1.25,3.07c0,1.31-0.42,2.32-1.25,3.02
			C180.55,151.45,179.38,151.81,177.88,151.81z M177.88,179.65c-1.41,0-2.47-0.39-3.19-1.18c-0.72-0.78-1.08-1.93-1.08-3.43v-15.22
			c0-1.5,0.36-2.65,1.08-3.43c0.72-0.78,1.78-1.18,3.19-1.18c1.34,0,2.39,0.39,3.14,1.18c0.75,0.78,1.13,1.93,1.13,3.43v15.22
			c0,1.5-0.37,2.65-1.1,3.43C180.31,179.26,179.25,179.65,177.88,179.65z"/>
		<path class="st41" d="M191.41,179.74c-1.41,0-2.47-0.38-3.19-1.13s-1.08-1.82-1.08-3.19v-15.94c0-1.38,0.36-2.44,1.08-3.19
			s1.75-1.13,3.1-1.13c1.31,0,2.33,0.38,3.05,1.13c0.72,0.75,1.08,1.82,1.08,3.19v2.26l-0.53-1.97c0.77-1.5,1.86-2.66,3.29-3.48
			c1.42-0.82,3.05-1.22,4.87-1.22c1.89,0,3.44,0.38,4.66,1.13c1.22,0.75,2.13,1.87,2.74,3.36c0.61,1.49,0.91,3.4,0.91,5.74v10.13
			c0,1.38-0.37,2.44-1.1,3.19s-1.79,1.13-3.17,1.13s-2.43-0.38-3.17-1.13s-1.1-1.82-1.1-3.19v-9.79c0-1.41-0.25-2.42-0.74-3.05
			c-0.5-0.62-1.22-0.94-2.18-0.94c-1.28,0-2.3,0.41-3.07,1.22c-0.77,0.82-1.15,1.91-1.15,3.29v9.26
			C195.69,178.3,194.26,179.74,191.41,179.74z"/>
		<path class="st41" d="M227.94,188.48c-1.73,0-3.36-0.14-4.9-0.41c-1.54-0.27-2.86-0.63-3.98-1.08c-0.9-0.29-1.54-0.74-1.94-1.34
			c-0.4-0.61-0.59-1.24-0.58-1.9c0.02-0.66,0.2-1.26,0.55-1.82c0.35-0.56,0.82-0.96,1.39-1.2c0.58-0.24,1.2-0.23,1.87,0.02
			c1.41,0.58,2.7,0.94,3.86,1.1c1.17,0.16,2.14,0.24,2.9,0.24c1.98,0,3.46-0.4,4.44-1.2c0.98-0.8,1.46-2.08,1.46-3.84v-2.98h0.43
			c-0.51,1.34-1.5,2.45-2.98,3.31c-1.47,0.86-3.07,1.3-4.8,1.3c-2.11,0-3.95-0.49-5.52-1.46c-1.57-0.98-2.79-2.36-3.67-4.15
			c-0.88-1.79-1.32-3.84-1.32-6.14c0-1.82,0.26-3.46,0.77-4.9c0.51-1.44,1.22-2.68,2.14-3.72c0.91-1.04,2.01-1.84,3.29-2.4
			c1.28-0.56,2.72-0.84,4.32-0.84c1.79,0,3.41,0.42,4.85,1.27c1.44,0.85,2.38,1.94,2.83,3.29l-0.43,1.97v-2.11
			c0-1.38,0.37-2.44,1.1-3.19s1.78-1.13,3.12-1.13s2.38,0.38,3.12,1.13c0.74,0.75,1.1,1.82,1.1,3.19v16.61
			c0,4.13-1.16,7.22-3.48,9.29C235.58,187.45,232.26,188.48,227.94,188.48z M228.33,172.35c0.96,0,1.78-0.22,2.47-0.67
			c0.69-0.45,1.22-1.07,1.58-1.87c0.37-0.8,0.55-1.76,0.55-2.88c0-1.76-0.42-3.12-1.27-4.08s-1.96-1.44-3.34-1.44
			c-0.93,0-1.73,0.22-2.4,0.65c-0.67,0.43-1.2,1.05-1.58,1.85c-0.38,0.8-0.58,1.81-0.58,3.02c0,1.7,0.42,3.02,1.25,3.98
			C225.85,171.87,226.95,172.35,228.33,172.35z"/>
		<path class="st41" d="M258.23,179.84c-2.62,0-4.91-0.5-6.86-1.49c-1.95-0.99-3.47-2.42-4.56-4.3c-1.09-1.87-1.63-4.07-1.63-6.6
			c0-1.92,0.3-3.64,0.91-5.16c0.61-1.52,1.49-2.82,2.64-3.91c1.15-1.09,2.53-1.91,4.13-2.47c1.6-0.56,3.39-0.84,5.38-0.84
			c2.62,0,4.91,0.5,6.86,1.49c1.95,0.99,3.46,2.42,4.54,4.27c1.07,1.86,1.61,4.06,1.61,6.62c0,1.92-0.3,3.63-0.91,5.14
			c-0.61,1.5-1.49,2.81-2.64,3.91c-1.15,1.1-2.53,1.94-4.13,2.5C261.96,179.56,260.18,179.84,258.23,179.84z M258.23,173.45
			c0.86,0,1.62-0.2,2.28-0.6c0.66-0.4,1.18-1.05,1.56-1.94c0.38-0.9,0.58-2.05,0.58-3.46c0-2.14-0.42-3.69-1.25-4.63
			c-0.83-0.94-1.89-1.42-3.17-1.42c-0.86,0-1.63,0.21-2.3,0.62c-0.67,0.42-1.2,1.06-1.58,1.94c-0.38,0.88-0.58,2.04-0.58,3.48
			c0,2.11,0.42,3.64,1.25,4.58C255.85,172.98,256.92,173.45,258.23,173.45z"/>
	</g>
</g>
<g>
	
		<g id="legLeft_FL_FL_FL_FL_FL_FL_FL_FL_FL_FL_FL_FL_FL_FL_FL_FL_FL_FL" transform="matrix( -1.0149383544921875, 0.3154144287109375, 0.6787109375, 0.84124755859375, 288.3,310.6) ">
		<g transform="matrix( 1.0071868896484375, 0, 0, 0.9892425537109375, 0,0) ">
			<g>
				<g id="Symbol_11_0_Layer0_0_FILL_00000075871760906331279360000011339899118953728693_">
					<path class="st25" d="M-49.2-195.63l-1.17-5.31l-15.65,4.13l-0.01-0.05c-0.89,0.95-1.61,2.22-2.17,3.83l0.5,2.28L-49.2-195.63z
						"/>
					<path class="st42" d="M-50.37-200.95l0.04-0.01l-0.8-3.61l-15.7,4.15l0.79,3.56l0.01,0.05L-50.37-200.95z"/>
					<path class="st35" d="M-56.27-217.04c-1.94-1.4-3.99-1.81-6.16-1.24l-0.04,0.01c-2.16,0.57-3.8,1.96-4.92,4.17
						c-1.14,2.25-1.42,4.67-0.85,7.25l1.42,6.43l15.7-4.15l-1.42-6.43C-53.11-213.58-54.35-215.6-56.27-217.04z"/>
				</g>
			</g>
		</g>
	</g>
	
		<g id="legRight_FL_FL_FL_FL_FL_FL_FL_FL_FL_FL_FL_FL_FL_FL_FL_FL_FL_FL" transform="matrix( -0.7070770263671875, 0.707061767578125, 0.6151123046875, 0.7990264892578125, 270.75,311.9) ">
		<g transform="matrix( 1.0071868896484375, 0, 0, 0.9892425537109375, 0,0) ">
			<g>
				<g id="Symbol_11_0_Layer0_0_FILL_00000132085518064075796810000015177227318882294452_">
					<path class="st25" d="M-46.08-185.13l-1.09-4.74l-17.68,3.91l-0.01-0.05c-1.03,0.86-1.89,2.01-2.58,3.46l0.47,2.04
						L-46.08-185.13z"/>
					<path class="st42" d="M-47.17-189.87l0.05-0.01l-0.74-3.22l-17.73,3.92l0.73,3.17l0.01,0.05L-47.17-189.87z"/>
					<path class="st35" d="M-53.1-204.19c-2.11-1.23-4.39-1.57-6.83-1.03l-0.05,0.01c-2.44,0.54-4.33,1.8-5.67,3.79
						c-1.36,2.03-1.78,4.19-1.25,6.5l1.32,5.73l17.73-3.92l-1.32-5.73C-49.71-201.14-51.01-202.93-53.1-204.19z"/>
				</g>
			</g>
		</g>
	</g>
	
		<g id="body_FL_FL_FL_FL_FL_FL_FL_FL_FL_FL_FL_FL_FL_FL_FL_FL_FL_FL_FL" transform="matrix( 0.922210693359375, -0.0208587646484375, 0, 1, 281.1,301.65) ">
		<g transform="matrix( 1.0129852294921875, 0, 0, 1.0081329345703125, 0.5,0.5) ">
			<g>
				<g id="Symbol_10_0_Layer0_0_FILL_00000105405362028280018280000007941354443052083099_">
					<path class="st25" d="M-65.98-183.09l0.95-3.93l-37.76-7.79l-0.95,3.93L-65.98-183.09z"/>
					<path class="st7" d="M-58.74-212.95l-37.76-7.79l-6.29,25.93l37.76,7.79L-58.74-212.95z"/>
				</g>
			</g>
		</g>
	</g>
	
		<g id="armRight_FL_FL_FL_FL_FL_FL_FL_FL_FL_FL_FL_FL_FL_FL_FL_FL_FL_FL_FL_FL_FL" transform="matrix( 0.6365509033203125, 0.771240234375, 0.69598388671875, -0.5744476318359375, 292.35,288.35) ">
		<g transform="matrix( 0.9970703125, 0, 0, 1.006103515625, -0.4,-0.05) ">
			<g>
				<g id="Symbol_8_0_Layer0_0_FILL_00000005232988868706642690000005113835673677733291_">
					<path class="st22" d="M-201.02,96.03c2.4,1.39,5.12,2.01,8.16,1.84c2.05-5.9,3.06-12,3.03-18.32l-13.66,0.84
						C-203.22,85.74-202.4,90.95-201.02,96.03z"/>
					<path class="st43" d="M-189.32,79.53l-0.1-3l-15.63,0.97c-0.77,0.6-0.73,1.6,0.1,3l1.46-0.1l13.66-0.84L-189.32,79.53z"/>
					<path class="st7" d="M-197.45,65.49l-0.05,0.01c-0.39,0.02-0.78,0.06-1.15,0.13c-3.31,0.75-5.44,4.71-6.4,11.87l15.63-0.97
						l-0.07-3.62c-0.03-2.18-0.83-4.01-2.4-5.51C-193.44,65.97-195.3,65.33-197.45,65.49z"/>
				</g>
			</g>
		</g>
	</g>
	
		<g id="head_FL_FL_FL_FL_FL_FL_FL_FL" transform="matrix( -0.99542236328125, 0.0955657958984375, 0.0955657958984375, 0.99542236328125, 278.5,285.15) ">
		<g transform="matrix( 1, 0, 0, 1, 0,0) ">
			<g>
				<g id="Symbol_12_0_Layer0_0_FILL_00000012453227258103753950000013572341971553063092_">
					<path class="st28" d="M47.51-197.58c2.2,0.84,4.67,0.95,7.4,0.34c2.73-0.61,4.92-1.77,6.55-3.46c0.97-1,1.58-2.03,1.82-3.07
						l-18.74,4.19C45.22-198.74,46.21-198.08,47.51-197.58z"/>
					<path class="st22" d="M71.81-210.34c-0.46-6.8-1.98-13.51-4.55-20.14c-1.07-2.8-3.05-3.88-5.95-3.23l-29.62,6.62
						c-2.86,0.64-4.19,2.49-3.98,5.55c0.52,6.92,2.02,13.62,4.49,20.1c1.11,2.83,3.1,3.92,5.96,3.28l6.39-1.43l18.74-4.19l4.49-1
						C70.68-205.42,72.02-207.28,71.81-210.34z"/>
				</g>
			</g>
		</g>
		<g transform="matrix( 1, 0, 0, 1, 0,0) ">
			<g>
				<g id="Symbol_12_0_Layer0_1_FILL_00000171001570616039812350000011746526351888957330_">
					<path class="st9" d="M45.85-216.94c-0.81-0.57-1.72-0.74-2.73-0.52c-1.01,0.23-1.79,0.78-2.35,1.65
						c-0.48,0.89-0.61,1.84-0.39,2.85c0.23,1.01,0.74,1.8,1.55,2.37c0.88,0.59,1.83,0.77,2.84,0.54c1.01-0.23,1.75-0.78,2.24-1.68
						c0.56-0.88,0.72-1.82,0.5-2.83C47.29-215.55,46.73-216.35,45.85-216.94 M56.08-208.51l-0.65-2.93l-6.69,1.49
						c-0.2,0.04-0.36,0.15-0.49,0.32c-0.17,0.14-0.27,0.33-0.28,0.58c-0.03,0.18,0.01,0.37,0.13,0.59c0.14,0.31,0.32,0.59,0.55,0.85
						c0.19,0.23,0.39,0.44,0.6,0.63L56.08-208.51 M64-220.99c-0.81-0.57-1.72-0.74-2.73-0.52c-1.01,0.23-1.79,0.78-2.35,1.65
						c-0.48,0.89-0.61,1.84-0.39,2.85c0.23,1.01,0.74,1.8,1.55,2.37c0.88,0.59,1.83,0.77,2.84,0.54c1.01-0.23,1.75-0.78,2.24-1.68
						c0.56-0.88,0.72-1.82,0.5-2.83C65.44-219.61,64.88-220.4,64-220.99z"/>
					<path class="st25" d="M45.15-222.11c0.25,0.05,0.49-0.01,0.73-0.16c0.2-0.18,0.34-0.4,0.42-0.66c0.04-0.28-0.02-0.53-0.16-0.73
						c-0.19-0.23-0.41-0.37-0.66-0.42c-1.57-0.3-3.03,0.05-4.38,1.03c-0.91,0.65-1.59,1.45-2.03,2.4c-0.12,0.23-0.13,0.49-0.03,0.78
						c0.09,0.25,0.27,0.44,0.53,0.55c0.23,0.12,0.49,0.13,0.78,0.03c0.25-0.09,0.44-0.27,0.55-0.53c0.3-0.65,0.76-1.18,1.39-1.59
						C43.17-222.06,44.12-222.29,45.15-222.11 M60.96-224.05c0.74,0.11,1.39,0.39,1.93,0.85c0.21,0.19,0.47,0.27,0.77,0.24
						c0.27-0.03,0.48-0.14,0.64-0.35c0.19-0.21,0.27-0.45,0.25-0.72c-0.03-0.3-0.15-0.53-0.36-0.69c-0.8-0.68-1.75-1.11-2.85-1.31
						c-1.64-0.32-3.09-0.01-4.35,0.92c-0.24,0.16-0.38,0.37-0.42,0.66c-0.08,0.26-0.02,0.5,0.16,0.73c0.15,0.21,0.37,0.34,0.66,0.42
						c0.25,0.05,0.49-0.01,0.73-0.16C58.94-224.06,59.89-224.26,60.96-224.05z"/>
					<path class="st11" d="M59.29-210c0.1-0.33,0.16-0.67,0.18-1.01c-0.02-0.23-0.08-0.43-0.18-0.57c-0.12-0.21-0.27-0.35-0.45-0.41
						c-0.22-0.09-0.43-0.11-0.63-0.06l-2.78,0.62l0.65,2.93l-6.83,1.53c0.27,0.28,0.58,0.52,0.93,0.71
						c1.43,0.91,2.95,1.19,4.54,0.83s2.83-1.23,3.72-2.62l0.04-0.06C58.85-208.72,59.12-209.35,59.29-210z"/>
				</g>
			</g>
		</g>
		<g transform="matrix( 1, 0, 0, 1, 0,0) ">
			<g>
				<g id="Symbol_12_0_Layer0_1_MEMBER_0_FILL_00000140007003027553137940000015831925563779205544_">
					<path class="st11" d="M63.07-215.76c0.29-0.68,0.34-1.44,0.15-2.29c-0.19-0.85-0.56-1.53-1.13-2.05
						c-0.52-0.5-1.07-0.68-1.66-0.55c-0.59,0.13-1.02,0.54-1.32,1.22c-0.25,0.71-0.28,1.48-0.09,2.33s0.54,1.52,1.07,2.02
						c0.56,0.52,1.13,0.72,1.72,0.59C62.4-214.64,62.82-215.06,63.07-215.76z"/>
				</g>
			</g>
		</g>
		<g transform="matrix( 1, 0, 0, 1, 0,0) ">
			<g>
				<g id="Symbol_12_0_Layer0_1_MEMBER_1_FILL_00000110463322811590782240000016590389155893428401_">
					<path class="st11" d="M46.63-212.09c0.29-0.68,0.34-1.44,0.15-2.29s-0.56-1.53-1.13-2.05c-0.52-0.5-1.07-0.68-1.66-0.55
						c-0.59,0.13-1.02,0.54-1.32,1.22c-0.25,0.71-0.28,1.48-0.09,2.33c0.19,0.85,0.54,1.52,1.07,2.02c0.56,0.52,1.13,0.72,1.72,0.59
						S46.37-211.38,46.63-212.09z"/>
				</g>
			</g>
		</g>
		<g transform="matrix( 1, 0, 0, 1, 0,0) ">
			<g>
				<g id="Symbol_12_0_Layer0_2_FILL_00000011713632560828949240000015236055250274773920_">
					<path class="st25" d="M24.43-228.18c0.33,8.81,2.57,16.93,6.73,24.37c2.54-3.75,3.17-9.52,1.87-17.32
						c0.53-12.14,11.25-24.53,32.17-37.16c-15.65,7.15-27.4,13.96-35.24,20.43l-1.79,5.27L24.43-228.18z"/>
					<path class="st3" d="M49.72-226.66c5.78,0.35,11.71-0.24,17.79-1.77l2.74,7.69c1-9.44,0.57-15.84-1.27-19.19
						c-2.54-4.66-3.81-10.78-3.8-18.36c-20.91,12.63-31.64,25.02-32.17,37.16C37-225.37,42.56-227.22,49.72-226.66z"/>
				</g>
			</g>
		</g>
	</g>
	
		<g id="handRight_FL_FL_FL_FL_FL_FL_FL_FL_FL_FL_FL_FL_FL_FL_FL_FL_FL_FL_FL_FL" transform="matrix( -0.5000152587890625, 0.865997314453125, 0.865997314453125, 0.5000152587890625, 309.35,283.5) ">
		<g transform="matrix( 1, 0, 0, 1, 0,0) ">
			<g>
				<g id="Symbol_9_0_Layer0_0_FILL_00000156567867844060776370000014332867395660779959_">
					<path class="st24" d="M-128.49-167.58c1.91,1.08,3.82,3.09,5.71,6.05l0.37,0.74l-0.01-0.05
						C-121.04-164.12-123.06-166.36-128.49-167.58 M-134.32-159.76c0.8-0.25,1.71-0.69,2.73-1.33c1.05-0.64,1.88-1.29,2.49-1.94
						c0.61-0.62,0.86-1.06,0.73-1.34c-0.09-0.25-0.55-0.25-1.38,0c-0.76,0.27-1.67,0.71-2.73,1.33c-1.02,0.64-1.84,1.26-2.45,1.88
						c-0.65,0.62-0.92,1.08-0.82,1.36C-135.64-159.52-135.16-159.51-134.32-159.76z"/>
					<path class="st22" d="M-122.78-161.52c-1.89-2.96-3.79-4.98-5.71-6.05l-8.86,4.59c-0.74,0.37-0.94,0.89-0.62,1.57l0.27,0.5
						c3.52,7.48,7.39,10.13,11.62,7.96c1.51-0.75,2.95-1.7,4.33-2.86c0.92-0.75,1.2-1.5,0.83-2.24l-0.1-0.23
						c-0.47-0.89-0.93-1.74-1.39-2.56l0.01,0.05L-122.78-161.52 M-131.6-161.09c-1.02,0.64-1.93,1.08-2.73,1.33
						c-0.83,0.25-1.31,0.24-1.44-0.04c-0.1-0.29,0.18-0.74,0.82-1.36c0.61-0.62,1.43-1.24,2.45-1.88c1.06-0.61,1.97-1.05,2.73-1.33
						c0.83-0.25,1.29-0.25,1.38,0c0.13,0.28-0.11,0.73-0.73,1.34C-129.72-162.38-130.55-161.74-131.6-161.09z"/>
				</g>
			</g>
		</g>
	</g>
	
		<g id="armLeft_FL_FL_FL_FL_FL_FL_FL_FL_FL_FL_FL_FL_FL_FL_FL_FL_FL_FL_FL" transform="matrix( 0.5000152587890625, -0.865997314453125, 0.7815093994140625, 0.4512176513671875, 260.95,292.65) ">
		<g transform="matrix( 0.9970703125, 0, 0, 1.006103515625, -0.4,-0.05) ">
			<g>
				<g id="Symbol_8_0_Layer0_0_FILL_00000136413487496084150940000000681239213267480717_">
					<path class="st22" d="M123.71-162c1.63,2.39,3.86,4.21,6.67,5.48c4.14-4.37,7.43-9.43,9.85-15.16l-12.69-5.63
						C125.71-172.34,124.43-167.24,123.71-162z"/>
					<path class="st43" d="M140.7-171.46l1.07-2.76l-14.52-6.43c-0.93,0.18-1.28,1.1-1.07,2.76l1.37,0.59l12.69,5.63L140.7-171.46z"
						/>
					<path class="st7" d="M138.78-187.97l-0.05-0.01c-0.36-0.16-0.73-0.3-1.09-0.42c-3.29-0.87-6.75,1.72-10.39,7.75l14.52,6.43
						l1.34-3.31c0.81-1.99,0.8-4.02-0.04-6.11C142.22-185.66,140.79-187.1,138.78-187.97z"/>
				</g>
			</g>
		</g>
	</g>
	
		<g id="handLeft_FL_FL_FL_FL_FL_FL_FL_FL_FL_FL_FL_FL_FL_FL_FL_FL_FL_FL_FL" transform="matrix( 0.2588043212890625, -0.9659271240234375, 0.9659271240234375, 0.2588043212890625, 281.95,301.85) ">
		<g transform="matrix( 1, 0, 0, 1, 0,0) ">
			<g>
				<g id="Symbol_9_0_Layer0_0_FILL_00000146479938219579871090000015586879038579250108_">
					<path class="st24" d="M171.82-133.86c1.27,1.79,2.14,4.42,2.59,7.9l0.02,0.82l0.01-0.05
						C177.09-127.56,176.22-130.45,171.82-133.86 M163.22-129.27c0.83,0.12,1.84,0.1,3.03-0.04c1.23-0.14,2.25-0.37,3.08-0.7
						c0.82-0.3,1.23-0.6,1.23-0.9c0.03-0.27-0.39-0.46-1.25-0.59c-0.8-0.08-1.81-0.06-3.03,0.04c-1.19,0.14-2.2,0.36-3.02,0.66
						c-0.85,0.29-1.29,0.58-1.32,0.88C161.93-129.61,162.36-129.4,163.22-129.27z"/>
					<path class="st22" d="M174.41-125.95c-0.45-3.48-1.31-6.12-2.59-7.9l-9.97,0.38c-0.82,0.02-1.24,0.41-1.23,1.16l0.03,0.57
						c0,8.27,2.37,12.31,7.12,12.15c1.68-0.03,3.39-0.28,5.14-0.75c1.16-0.29,1.73-0.84,1.7-1.67l0.01-0.25
						c-0.05-1-0.11-1.97-0.17-2.91l-0.01,0.05L174.41-125.95 M166.25-129.31c-1.19,0.14-2.2,0.16-3.03,0.04
						c-0.86-0.12-1.29-0.34-1.29-0.65c0.03-0.3,0.47-0.59,1.32-0.88c0.82-0.3,1.82-0.51,3.02-0.66c1.22-0.1,2.23-0.12,3.03-0.04
						c0.86,0.12,1.28,0.32,1.25,0.59c0,0.31-0.41,0.61-1.23,0.9C168.5-129.68,167.47-129.45,166.25-129.31z"/>
				</g>
			</g>
		</g>
	</g>
</g>
<g>
	
		<g id="legLeft_FL_FL_00000067201331520506737950000007254933908756978364_" transform="matrix( -0.858612060546875, -0.499969482421875, -0.4956817626953125, 0.86602783203125, 114.15,89.5) ">
		<g transform="matrix( 1, 0, 0, 1, 0,0) ">
			<g>
				<g id="Symbol_11_0_Layer0_0_FILL_00000158723413378547777980000010264058684900715406_">
					<path class="st44" d="M-176.54-18.61l2.78-2.8L-187.5-32.8l-1.62,1.63L-176.54-18.61z"/>
					<path class="st25" d="M-178.77-37.98c-2.4,0-4.46,0.86-6.17,2.59l-2.57,2.59l13.74,11.39l1.41-1.42
						c1.71-1.72,2.55-3.8,2.52-6.23c-0.03-2.38-0.92-4.45-2.67-6.2l-0.04-0.04C-174.29-37.04-176.37-37.93-178.77-37.98z"/>
					<path class="st45" d="M-191.47-28.73l12.54,12.53l0.04-0.04l2.36-2.37l-12.58-12.56l-2.39,2.41L-191.47-28.73z"/>
					<path class="st46" d="M-180.11-10.39l1.51-1.52c0.23-1.61,0.13-3.05-0.3-4.32l-0.04,0.04l-12.54-12.53l-3.48,3.51
						L-180.11-10.39z"/>
				</g>
			</g>
		</g>
	</g>
	
		<g id="armRight_FL_FL_FL_FL_00000169541344250838617350000016070129276810823355_" transform="matrix( 0.773681640625, 0.6253204345703125, 0.619964599609375, -0.780364990234375, 139.2,63.85) ">
		<g transform="matrix( 1, 0, 0, 1, 0,0) ">
			<g>
				<g id="Symbol_8_0_Layer0_0_FILL_00000021804496037476623010000011317875107191264662_">
					<path class="st47" d="M121.96,35.17c-4.19,3.64-7.7,7.79-10.54,12.46c1.9,2.4,4.17,4.05,6.82,4.96
						c3.6-1.61,7.06-3.49,10.39-5.64L121.96,35.17z"/>
					<path class="st48" d="M128.63,46.95c1.14-0.76,2.27-1.54,3.39-2.35l-8.44-10.84c-0.56,0.46-1.11,0.93-1.62,1.42L128.63,46.95z"
						/>
					<path class="st49" d="M123.58,33.75l8.44,10.84l0.87,1.13c1.66-0.27,2.47-0.88,2.42-1.84l-9.68-12.34l-2.37,1.82L123.58,33.75z
						"/>
					<path class="st50" d="M134.34,27.63c-2.19-0.24-4.14,0.31-5.84,1.66l-2.88,2.25l9.68,12.34c4.92-5.23,6.55-9.32,4.9-12.26
						c-0.17-0.33-0.38-0.65-0.62-0.97l-0.02-0.04C138.24,28.88,136.5,27.89,134.34,27.63z"/>
				</g>
			</g>
		</g>
	</g>
	
		<g id="body_FL_FL_00000124861793628257094900000011043061995633409926_" transform="matrix( 0.991424560546875, 0, 0, 1, 122.85,80.25) ">
		<g transform="matrix( 1, 0, 0, 1, 0,0) ">
			<g>
				<g id="Symbol_10_0_Layer0_0_FILL_00000057830338930707686130000009379834113232147880_">
					<path class="st25" d="M145.11,64.31l-12.07-3.23l-1.08,3.96l15.83,4.24l1.08-3.96L145.11,64.31 M154.74,71.14l14.87,3.98
						l1.08-3.96l-14.87-3.98L154.74,71.14z"/>
					<path class="st51" d="M149.27,63.87l-0.39,1.45l-1.08,3.96l6.95,1.86l1.08-3.96l0.39-1.45L149.27,63.87z"/>
					<path class="st52" d="M164.1,55.41l-6.47,3.03c0.12,0.13,0.26,0.25,0.42,0.37c0.79,0.66,1.7,0.92,2.74,0.79
						c1.03-0.1,1.86-0.57,2.51-1.4c0.63-0.8,0.9-1.71,0.8-2.74L164.1,55.41 M155.96,50.33l6.83-3.2c-0.25-0.33-0.55-0.63-0.89-0.91
						c-0.8-0.63-1.71-0.89-2.74-0.79c-1.04,0.14-1.87,0.6-2.51,1.4c-0.67,0.82-0.94,1.75-0.81,2.79L155.96,50.33 M148.36,49.69
						c0.11-0.39-0.04-0.63-0.42-0.73l-5.89-1.58c-0.39-0.1-0.63,0.04-0.74,0.42l-0.53,1.93c-0.11,0.39,0.04,0.63,0.42,0.73
						l5.89,1.58c0.39,0.1,0.63-0.04,0.74-0.42L148.36,49.69z"/>
					<path class="st50" d="M164.09,55.46c0.1,1.03-0.17,1.94-0.8,2.74c-0.64,0.83-1.48,1.3-2.51,1.4c-1.04,0.14-1.95-0.13-2.74-0.79
						c-0.15-0.12-0.29-0.24-0.42-0.37l-12.53,5.86l3.76,1.01l0.39-1.45l6.95,1.86l-0.39,1.45l14.87,3.98l5.88-21.58l-12.46,5.83
						L164.09,55.46 M155.84,49.62c-0.13-1.04,0.14-1.97,0.81-2.79c0.63-0.8,1.47-1.26,2.51-1.4c1.03-0.1,1.94,0.16,2.74,0.79
						c0.34,0.28,0.64,0.58,0.89,0.91l8.13-3.78l-30.8-8.25l-7.08,25.97l22.92-10.74L155.84,49.62 M143.07,43.46
						c0.08-0.05,0.17-0.06,0.27-0.03l5.74,1.54c0.1,0.03,0.17,0.08,0.22,0.16c0.07,0.12,0.09,0.23,0.07,0.33l-0.43,1.59
						c-0.03,0.1-0.08,0.17-0.16,0.22c-0.08,0.05-0.16,0.08-0.23,0.09l-3.12,0.04c-0.07,0.01-0.14,0-0.19-0.05l-2.62-1.58
						c-0.09-0.06-0.14-0.12-0.15-0.2c-0.05-0.08-0.06-0.17-0.03-0.27l0.43-1.59C142.87,43.61,142.95,43.53,143.07,43.46
						 M147.1,52.05l-5.89-1.58c-0.39-0.1-0.53-0.35-0.42-0.73l0.53-1.93c0.11-0.39,0.35-0.53,0.74-0.42l5.89,1.58
						c0.39,0.1,0.53,0.35,0.42,0.73l-0.53,1.93C147.73,52.01,147.49,52.15,147.1,52.05 M145.05,46.63c0.09,0.16,0.22,0.27,0.38,0.31
						c0.16,0.04,0.32,0.02,0.49-0.08c0.16-0.09,0.27-0.22,0.31-0.38s0.02-0.32-0.07-0.49c-0.09-0.16-0.22-0.27-0.38-0.31
						c-0.16-0.04-0.32-0.02-0.49,0.08s-0.27,0.22-0.31,0.38S144.96,46.47,145.05,46.63z"/>
					<path class="st53" d="M170.91,43.35l-8.13,3.78l-6.83,3.2l-22.92,10.74l12.07,3.23l12.53-5.86l6.47-3.03l12.46-5.83l1.2-4.39
						L170.91,43.35z"/>
					<path class="st49" d="M142.85,43.71l-0.43,1.59c-0.03,0.1-0.02,0.19,0.03,0.27c0.01,0.07,0.07,0.14,0.15,0.2l2.62,1.58
						c0.06,0.05,0.12,0.07,0.19,0.05l3.12-0.04c0.07-0.01,0.15-0.05,0.23-0.09c0.08-0.05,0.14-0.12,0.16-0.22l0.43-1.59
						c0.03-0.1,0-0.21-0.07-0.33c-0.05-0.08-0.12-0.14-0.22-0.16l-5.74-1.54c-0.1-0.03-0.19-0.02-0.27,0.03
						C142.95,43.53,142.87,43.61,142.85,43.71 M145.78,45.69c0.16,0.04,0.29,0.15,0.38,0.31c0.09,0.16,0.12,0.33,0.07,0.49
						s-0.15,0.29-0.31,0.38c-0.16,0.09-0.33,0.12-0.49,0.08c-0.16-0.04-0.29-0.15-0.38-0.31c-0.09-0.16-0.12-0.33-0.07-0.49
						s0.15-0.29,0.31-0.38S145.62,45.64,145.78,45.69z"/>
				</g>
			</g>
		</g>
	</g>
	
		<g id="armLeft_FL_FL_FL_00000158005193809970705280000003046359039607265960_" transform="matrix( 0.9059906005859375, 0.406097412109375, -0.402618408203125, 0.913818359375, 102.1,65.35) ">
		<g transform="matrix( 1, 0, 0, 1, 0,0) ">
			<g>
				<g id="Symbol_8_0_Layer0_0_FILL_00000036253137831494063810000001059239473090241687_">
					<path class="st47" d="M210.71-8.37c3.98,3.86,8.42,7,13.3,9.42c2.22-2.11,3.66-4.53,4.32-7.26c-1.92-3.45-4.09-6.74-6.52-9.88
						L210.71-8.37z"/>
					<path class="st48" d="M221.81-16.09c-0.85-1.07-1.73-2.13-2.63-3.17l-10.03,9.4c0.51,0.52,1.02,1.02,1.55,1.49L221.81-16.09z"
						/>
					<path class="st49" d="M209.16-9.86l10.03-9.4l1.04-0.97c-0.41-1.64-1.09-2.38-2.04-2.25l-11.41,10.77l2.01,2.21L209.16-9.86z"
						/>
					<path class="st50" d="M202.13-20.07c-0.05,2.21,0.67,4.11,2.16,5.68l2.49,2.67l11.41-10.77c-5.63-4.45-9.83-5.71-12.61-3.8
						c-0.31,0.2-0.61,0.44-0.91,0.71l-0.04,0.03C203.03-24.08,202.2-22.25,202.13-20.07z"/>
				</g>
			</g>
		</g>
	</g>
	
		<g id="handLeft_FL_FL_FL_00000080908608177752608230000001652638908786786721_" transform="matrix( 0.8837890625, 0.4531707763671875, -0.44927978515625, 0.89141845703125, 91.75,91.45) ">
		<g transform="matrix( 1, 0, 0, 1, 0,0) ">
			<g>
				<g id="Symbol_9_0_Layer0_0_FILL_00000173856149430951975210000016495078119657805698_">
					<path class="st47" d="M215.48-33.85l0.34,0.75l-0.03-0.04c0.35,0.87,0.73,1.76,1.12,2.69l0.12,0.23c0.34,0.75,1.1,1,2.26,0.74
						c1.77-0.36,3.41-0.89,4.94-1.61c4.34-1.96,4.69-6.64,1.06-14.06l-0.23-0.52c-0.33-0.68-0.87-0.84-1.61-0.49l-9.11,4.08
						C213.98-39.92,214.36-37.17,215.48-33.85 M224.07-41.79c-0.69,0.47-1.6,0.91-2.74,1.31c-1.16,0.42-2.18,0.67-3.06,0.74
						c-0.86,0.1-1.36,0.01-1.5-0.27c-0.14-0.23,0.15-0.59,0.87-1.08c0.69-0.42,1.6-0.86,2.74-1.31c1.13-0.4,2.13-0.65,2.99-0.75
						c0.89-0.12,1.41-0.05,1.58,0.21C225.08-42.67,224.78-42.28,224.07-41.79z"/>
					<path class="st54" d="M223.37-43.15c-0.86,0.1-1.86,0.35-2.99,0.75c-1.14,0.45-2.05,0.88-2.74,1.31
						c-0.72,0.49-1.01,0.85-0.87,1.08c0.14,0.28,0.63,0.37,1.5,0.27c0.88-0.07,1.91-0.32,3.06-0.74c1.13-0.4,2.05-0.84,2.74-1.31
						c0.72-0.49,1.01-0.88,0.87-1.15C224.78-43.2,224.25-43.27,223.37-43.15 M215.83-33.1l-0.34-0.75
						c-1.12-3.33-1.51-6.08-1.15-8.25c-2.45,5.01-1.96,7.99,1.46,8.96L215.83-33.1z"/>
				</g>
			</g>
		</g>
	</g>
	
		<g id="handRight_FL_FL_FL_FL_00000010270950836205021490000017248886052331683486_" transform="matrix( -0.9189910888671875, -0.3751678466796875, 0.3719482421875, -0.92694091796875, 147.25,34.7) ">
		<g transform="matrix( 1, 0, 0, 1, 0,0) ">
			<g>
				<g id="Symbol_9_0_Layer0_0_FILL_00000137836477332189352740000001666770491546819492_">
					<path class="st47" d="M-135.03-6.84l0.21,0.8l-0.02-0.04c0.2,0.92,0.42,1.86,0.65,2.84l0.08,0.24c0.21,0.8,0.91,1.17,2.1,1.12
						c1.8-0.05,3.51-0.3,5.14-0.74c4.6-1.19,5.75-5.75,3.44-13.68l-0.13-0.55c-0.21-0.72-0.71-0.98-1.51-0.76l-9.67,2.46
						C-135.48-13.08-135.57-10.31-135.03-6.84 M-125.22-13.2c-0.76,0.35-1.73,0.62-2.92,0.82c-1.21,0.22-2.26,0.29-3.14,0.2
						c-0.87-0.05-1.34-0.23-1.43-0.52c-0.1-0.25,0.25-0.56,1.04-0.92c0.75-0.3,1.72-0.58,2.92-0.82c1.18-0.2,2.21-0.28,3.08-0.22
						c0.9,0.04,1.4,0.19,1.52,0.47C-124.08-13.89-124.43-13.57-125.22-13.2z"/>
					<path class="st54" d="M-125.68-14.66c-0.87-0.05-1.89,0.02-3.08,0.22c-1.2,0.25-2.17,0.52-2.92,0.82
						c-0.79,0.36-1.14,0.67-1.04,0.92c0.09,0.29,0.56,0.47,1.43,0.52c0.88,0.08,1.93,0.01,3.14-0.2c1.18-0.2,2.16-0.48,2.92-0.82
						c0.79-0.36,1.14-0.69,1.06-0.99C-124.28-14.47-124.79-14.63-125.68-14.66 M-134.82-6.04l-0.21-0.8
						c-0.54-3.47-0.45-6.25,0.27-8.32c-3.26,4.52-3.29,7.54-0.09,9.08L-134.82-6.04z"/>
				</g>
			</g>
		</g>
	</g>
	
		<g id="head_FL_FL_00000019674439740404976580000012312361186884923836_" transform="matrix( 0.991424560546875, 0, 0, 1, 122.75,61.25) ">
		<g transform="matrix( 1, 0, 0, 1, 0,0) ">
			<g>
				<g id="Symbol_12_0_Layer0_0_FILL_00000024700875230421326420000012906727449739165843_">
					<path class="st54" d="M142.02,52.05c0,0.14-0.01,0.29-0.02,0.46s-0.03,0.36-0.05,0.56c-0.15,2.72,1.12,4.44,3.82,5.17
						l4.44,1.19l18.54,4.97l6.32,1.69c2,0.53,3.59,0.19,4.79-1.05c0.32-0.29,0.59-0.65,0.81-1.08c0.18-0.26,0.34-0.56,0.5-0.9
						c1.73-3.96,3.08-8,4.03-12.13c-4.06,6.68-7.56,8.8-10.49,6.36c-0.66-0.49-1.35-0.95-2.06-1.38c-2.92-1.82-6.36-3.26-10.32-4.32
						c-5.28-1.41-10.13-1.8-14.55-1.15c-3.27,0.23-4.74-1.75-4.39-5.94C142.8,46.99,142.33,49.51,142.02,52.05z"/>
					<path class="st47" d="M143.41,44.5c-0.35,4.19,1.12,6.17,4.39,5.94c4.42-0.65,9.27-0.26,14.55,1.15
						c3.96,1.06,7.4,2.5,10.32,4.32c0.71,0.43,1.4,0.89,2.06,1.38c2.93,2.44,6.42,0.32,10.49-6.36c0.6-2.57,1.06-5.15,1.39-7.76
						c0.35-3.05-0.89-4.95-3.73-5.71l-29.3-7.85c-2.86-0.77-4.9,0.23-6.09,2.98c-0.99,2.22-1.85,4.44-2.59,6.66
						C144.34,41,143.85,42.75,143.41,44.5z"/>
					<path class="st55" d="M168.75,64.39l-18.54-4.97c0.2,1.05,0.76,2.1,1.68,3.14c1.56,1.76,3.69,3.01,6.39,3.73
						s5.17,0.71,7.42-0.03C167.03,65.83,168.05,65.2,168.75,64.39z"/>
				</g>
			</g>
		</g>
		<g transform="matrix( 1, 0, 0, 1, 0,0) ">
			<g>
				<g id="Symbol_12_0_Layer0_0_MEMBER_0_FILL_00000145769955475410580760000014543927396472199097_">
					<path class="st54" d="M182.19,49.66c-0.01-0.11-0.04-0.18-0.09-0.23l-0.51-0.6c-0.08-0.09-0.17-0.13-0.28-0.13
						c-0.13-0.03-0.22-0.02-0.27,0.03l-3.42,2.29c-0.04,0.02-0.07,0.05-0.07,0.08l-2.61,3.13c-0.06,0.09-0.08,0.18-0.08,0.29
						c0.01,0.11,0.03,0.2,0.08,0.28l0.43,0.53c0.08,0.09,0.17,0.13,0.28,0.13c0.13,0.03,0.23,0.03,0.32-0.02l3.29-2.18
						c0.01-0.03,0.03-0.06,0.07-0.08l2.75-3.25C182.12,49.84,182.17,49.75,182.19,49.66z"/>
				</g>
			</g>
		</g>
		<g transform="matrix( 1, 0, 0, 1, 0,0) ">
			<g>
				<g id="Symbol_12_0_Layer0_1_FILL_00000112614844918484581960000005152138385416761751_">
					<path class="st29" d="M150.49,38.83c1.46,1.6,3.22,2.94,5.28,4c0.25,0.1,0.5,0.12,0.76,0.05c0.26-0.07,0.46-0.22,0.59-0.46
						c0.11-0.28,0.13-0.55,0.07-0.81c-0.07-0.26-0.23-0.44-0.47-0.54c-1.84-0.98-3.43-2.18-4.77-3.61c-0.22-0.2-0.45-0.29-0.7-0.29
						c-0.3-0.05-0.55,0.04-0.75,0.27c-0.19,0.19-0.29,0.42-0.29,0.7C150.18,38.4,150.27,38.64,150.49,38.83 M167.98,46.31
						c2.32,0.1,4.52-0.17,6.59-0.82c0.29-0.06,0.49-0.21,0.59-0.46c0.13-0.24,0.17-0.49,0.1-0.75c-0.06-0.29-0.23-0.49-0.51-0.6
						c-0.21-0.12-0.46-0.16-0.75-0.1c-1.88,0.57-3.86,0.81-5.95,0.74c-0.27-0.04-0.49,0.04-0.68,0.23
						c-0.19,0.19-0.31,0.44-0.36,0.73c-0.01,0.27,0.09,0.51,0.28,0.7C167.48,46.17,167.71,46.28,167.98,46.31z"/>
					<path class="st9" d="M164.4,56.8c0.22-0.18,0.43-0.38,0.63-0.61c0.24-0.25,0.44-0.52,0.59-0.83c0.13-0.21,0.18-0.4,0.16-0.58
						c0-0.24-0.09-0.44-0.25-0.59c-0.13-0.17-0.29-0.28-0.48-0.34l-6.61-1.77l-0.79,2.9L164.4,56.8z"/>
					<path class="st56" d="M154.57,51.79c-0.11,0.14-0.18,0.33-0.21,0.57c0.01,0.35,0.05,0.69,0.14,1.02
						c0.13,0.66,0.37,1.29,0.72,1.9l0.04,0.06c0.82,1.43,2.02,2.35,3.59,2.78c1.58,0.42,3.1,0.21,4.58-0.64
						c0.36-0.18,0.68-0.4,0.96-0.67l-6.76-1.81l0.79-2.9l-2.75-0.74c-0.19-0.05-0.4-0.04-0.63,0.04
						C154.86,51.45,154.7,51.58,154.57,51.79z"/>
				</g>
			</g>
		</g>
		<g transform="matrix( 1, 0, 0, 1, 0,0) ">
			<g>
				<g id="Symbol_12_0_Layer0_1_MEMBER_0_FILL_00000108272436495007673470000014252104425150470537_">
					<path class="st29" d="M171.7,47.67l-3.69-0.32c-0.23,0.35-0.41,0.75-0.54,1.2c-0.23,0.84-0.21,1.6,0.05,2.29
						c0.22,0.71,0.62,1.15,1.2,1.31s1.16-0.02,1.75-0.52c0.54-0.48,0.93-1.13,1.16-1.97C171.81,48.97,171.84,48.3,171.7,47.67
						 M151.25,46.5c0.22,0.71,0.62,1.15,1.2,1.31c0.58,0.16,1.16-0.02,1.75-0.52c0.54-0.48,0.93-1.13,1.16-1.97
						c0.11-0.42,0.17-0.82,0.17-1.2L152,42.6c-0.37,0.45-0.63,0.99-0.8,1.6C150.98,45.04,150.99,45.8,151.25,46.5z"/>
					<path class="st9" d="M171.62,49.67c-0.23,0.84-0.61,1.49-1.16,1.97c-0.58,0.5-1.17,0.67-1.75,0.52s-0.98-0.59-1.2-1.31
						c-0.26-0.69-0.28-1.46-0.05-2.29c0.12-0.45,0.3-0.85,0.54-1.2l-0.8-0.11c-0.19,0.33-0.35,0.7-0.46,1.12
						c-0.27,1-0.15,1.95,0.36,2.84c0.44,0.91,1.16,1.5,2.16,1.77c1,0.27,1.95,0.13,2.86-0.42c0.84-0.54,1.39-1.3,1.66-2.3
						c0.23-0.84,0.2-1.64-0.07-2.4l-2.02-0.18C171.84,48.3,171.81,48.97,171.62,49.67 M148.79,43.56c-0.27,1-0.15,1.95,0.36,2.84
						c0.44,0.91,1.16,1.5,2.16,1.77c1,0.27,1.95,0.13,2.86-0.42c0.84-0.54,1.39-1.3,1.66-2.3c0.11-0.39,0.16-0.77,0.16-1.15
						l-0.47-0.18c0,0.38-0.06,0.78-0.17,1.2c-0.23,0.84-0.61,1.49-1.16,1.97c-0.58,0.5-1.17,0.67-1.75,0.52
						c-0.58-0.16-0.98-0.59-1.2-1.31c-0.26-0.69-0.28-1.46-0.05-2.29c0.17-0.61,0.43-1.14,0.8-1.6l-2.09-0.87
						C149.36,42.21,148.99,42.82,148.79,43.56z"/>
				</g>
			</g>
		</g>
		<g transform="matrix( 1, 0, 0, 1, 0,0) ">
			<g>
				<g id="Symbol_12_0_Layer0_2_FILL_00000037676357301711840530000004909137877023130754_">
					<path class="st29" d="M151.39,52.44c-0.05,0.19-0.06,0.35-0.02,0.46l0.12,0.71c0.02,0.18,0.07,0.3,0.16,0.35
						c0.11,0.1,0.24,0.13,0.39,0.1c2.47-0.82,4.69-1.23,6.65-1.22c0.82,0.05,1.35-0.14,1.6-0.56c0.43-0.44,0.44-1.11,0.03-2.01
						c0.01-0.03,0-0.07-0.02-0.11c-0.49-0.75-1.24-1.14-2.27-1.18c-1.87,0.02-3.98,1.04-6.33,3.07
						C151.57,52.16,151.47,52.29,151.39,52.44 M162.09,50.64c-0.04,0.02-0.08,0.05-0.12,0.07c-0.78,0.58-1.1,1.17-0.95,1.77
						c0.01,0.48,0.37,0.91,1.1,1.28c1.7,0.97,3.41,2.43,5.13,4.38c0.08,0.09,0.21,0.12,0.39,0.1c0.11-0.01,0.21-0.08,0.32-0.22
						l0.41-0.56c0.12-0.07,0.19-0.21,0.21-0.41c0.04-0.16,0.04-0.32-0.03-0.47c-1-2.93-2.3-4.86-3.91-5.81
						C163.74,50.27,162.89,50.23,162.09,50.64z"/>
				</g>
			</g>
		</g>
		<g transform="matrix( 1, 0, 0, 1, 0,0) ">
			<g>
				<g id="Symbol_12_0_Layer0_3_MEMBER_0_FILL_00000057865494889163819510000007299208299056369580_">
					<path class="st57" d="M161.28,17.12l-5.55-0.35L144.1,27.7l2.74,3.06L161.28,17.12 M186.97,31.93l0.39,17.56l4.64-4.87
						l-0.5-2.93l2.25-2.35l-3.07-1.86l-1.16-6.37l-4.38-2.73l-0.11-3.19l-3.12,0.25l-3.57-4.58l-6.81-2.19L186.97,31.93z"/>
					<path class="st29" d="M146.84,30.76l-2.67,9.23l6.62-7.39l3.66,0.62l-0.04,1.28l10.57,0.55l1.18,0.21l2.03,4.9l14.11,0.1
						l-0.96,10.36l1.82,0.18l0.43,5.09l3.94-2.47l-0.17-3.93l-0.39-17.56l-15.45-13.25l-5.76-5.48l-4.44,3.94l-0.05-0.01
						L146.84,30.76z"/>
				</g>
			</g>
		</g>
	</g>
	
		<g id="legRight_FL_FL_00000111885776822153601100000004409629129692383904_" transform="matrix( -0.9887542724609375, -0.1416015625, -0.256591796875, 0.9659271240234375, 135.5,83.5) ">
		<g transform="matrix( 1, 0, 0, 1, 0,0) ">
			<g>
				<g id="Symbol_11_0_Layer0_0_FILL_00000163074537470808497390000018384714288716514184_">
					<path class="st44" d="M-131.62,46.68l1.01-3.94l-18.12,1.28l-0.59,2.29L-131.62,46.68z"/>
					<path class="st25" d="M-143.69,34.24c-2.13,1.66-3.5,3.7-4.12,6.13l-0.93,3.64l18.12-1.28l0.51-1.99
						c0.62-2.43,0.28-4.51-1.02-6.24c-1.27-1.7-3.14-2.57-5.6-2.62l-0.05,0C-139.23,31.83-141.53,32.62-143.69,34.24z"/>
					<path class="st45" d="M-150.14,49.7l17.65,0.37l0.01-0.05l0.85-3.34l-17.7-0.37l-0.87,3.39L-150.14,49.7z"/>
					<path class="st46" d="M-130.5,55.07l0.55-2.14c-0.63-1.32-1.47-2.29-2.52-2.91l-0.01,0.05l-17.65-0.37l-1.26,4.94L-130.5,55.07
						z"/>
				</g>
			</g>
		</g>
	</g>
</g>
</svg>
