<?xml version="1.0" encoding="utf-8"?>
<!-- Generator: Adobe Illustrator 27.3.1, SVG Export Plug-In . SVG Version: 6.00 Build 0)  -->
<svg version="1.1" xmlns="http://www.w3.org/2000/svg" xmlns:xlink="http://www.w3.org/1999/xlink" x="0px" y="0px"
	 viewBox="0 0 153.71 136" style="enable-background:new 0 0 153.71 136;" xml:space="preserve">
<style type="text/css">
	.st0{fill:#1B3036;}
	.st1{fill:#426D7A;}
	.st2{fill:#345762;}
	.st3{fill:#D1E8F1;}
	.st4{fill:#FFFFFF;}
	.st5{fill:#595B5B;}
	.st6{fill:#EA9223;}
	.st7{fill:#CF8017;}
	.st8{fill:#F2F7FB;}
	.st9{fill:#27434D;}
</style>
<path class="st0" d="M132.53,0c8.43,0,12.65,4.23,12.65,12.7v73.8c4.47,4.7,7.27,9.82,8.4,15.35c1.33,6.67,0.07,11.85-3.8,15.55
	c-1.37,1.33-2.9,2.37-4.6,3.1v3.35V124c-0.2,8-4.42,12-12.65,12H21.83c-8.23,0-12.45-4-12.65-12v-0.15v-3.25
	c-1.83-0.73-3.45-1.8-4.85-3.2c-3.9-3.7-5.17-8.88-3.8-15.55c1.13-5.63,4.02-10.87,8.65-15.7V12.7C9.18,4.23,13.4,0,21.83,0H132.53
	 M141.18,16.2v-3.5c0-5.8-2.88-8.7-8.65-8.7H21.83c-5.77,0-8.65,2.9-8.65,8.7v3.5v71.7l-0.9,0.8l-0.1,0.1
	c-4.13,4.27-6.72,8.88-7.75,13.85c-1.03,5.1-0.13,9.07,2.7,11.9c1.63,1.63,3.65,2.63,6.05,3v6.3c0.17,5.43,3.05,8.15,8.65,8.15h16
	h78.25h16.45c5.6,0,8.48-2.72,8.65-8.15v-6.35c2.27-0.4,4.18-1.38,5.75-2.95c2.83-2.83,3.73-6.8,2.7-11.9
	c-1.03-4.97-3.62-9.58-7.75-13.85l-0.1-0.1l-0.6-0.55L141.18,16.2"/>
<path class="st1" d="M141.18,16.2c-0.17-5.47-3.05-8.2-8.65-8.2H21.83c-5.6,0-8.48,2.73-8.65,8.2v-3.5c0-5.8,2.88-8.7,8.65-8.7
	h110.7c5.77,0,8.65,2.9,8.65,8.7V16.2"/>
<path class="st2" d="M141.18,16.2v71.95v29.35v6.35c-0.17,5.43-3.05,8.15-8.65,8.15h-16.45l-1.85-2.85
	c-2.93-4.23-6.03-7.85-9.3-10.85c-8.23-7.6-17.55-11.4-27.95-11.4c-10.43,0-19.75,3.8-27.95,11.4c-3.27,3.03-6.37,6.65-9.3,10.85
	l-1.9,2.85h-16c-5.6,0-8.48-2.72-8.65-8.15v-6.3V87.9V16.2c0.17-5.47,3.05-8.2,8.65-8.2h110.7C138.13,8,141.01,10.73,141.18,16.2
	 M123.93,51.25c-1.23-4.37-3.83-7.7-7.8-10c-4.13-2.4-8.48-2.98-13.05-1.75c-4.53,1.2-8,3.88-10.4,8.05
	c-2.3,3.93-2.92,8.13-1.85,12.6l0.15,0.55c2.17,8.07,5.65,14.5,10.45,19.3c4.77,4.8,9.43,6.6,14,5.4c4.57-1.23,7.7-5.13,9.4-11.7
	c1.67-6.53,1.42-13.83-0.75-21.9L123.93,51.25 M92.73,77.9c-0.5-3.23-1.97-6.08-4.4-8.55c-0.6-0.6-1.2-1.12-1.8-1.55
	c-2.7-2.03-5.82-3.05-9.35-3.05s-6.65,1.02-9.35,3.05c-0.63,0.43-1.25,0.95-1.85,1.55c-2.43,2.47-3.9,5.32-4.4,8.55l-0.2,2.6
	l0.05,1.05c0.2,2.33,1.72,4.33,4.55,6c3.1,1.8,6.83,2.7,11.2,2.7s8.08-0.9,11.15-2.7c2.83-1.67,4.35-3.67,4.55-6l0.05-1.05
	L92.73,77.9 M63.58,60.2c1.1-4.47,0.48-8.68-1.85-12.65c-2.33-4.13-5.8-6.8-10.4-8c-4.57-1.27-8.92-0.7-13.05,1.7
	c-3.97,2.3-6.58,5.63-7.85,10l-0.2,0.55c-2.13,8.07-2.33,15.38-0.6,21.95c1.73,6.53,4.87,10.43,9.4,11.7
	c4.6,1.2,9.28-0.62,14.05-5.45c4.73-4.77,8.17-11.18,10.3-19.25L63.58,60.2"/>
<path class="st3" d="M63.58,60.2l-0.2,0.55c-2.13,8.07-5.57,14.48-10.3,19.25c-4.77,4.83-9.45,6.65-14.05,5.45
	c-4.53-1.27-7.67-5.17-9.4-11.7c-1.73-6.57-1.53-13.88,0.6-21.95l0.2-0.55c1.27-4.37,3.88-7.7,7.85-10c4.13-2.4,8.48-2.97,13.05-1.7
	c4.6,1.2,8.07,3.87,10.4,8C64.06,51.52,64.68,55.73,63.58,60.2 M123.93,51.25l0.15,0.55c2.17,8.07,2.42,15.37,0.75,21.9
	c-1.7,6.57-4.83,10.47-9.4,11.7c-4.57,1.2-9.23-0.6-14-5.4c-4.8-4.8-8.28-11.23-10.45-19.3l-0.15-0.55
	c-1.07-4.47-0.45-8.67,1.85-12.6c2.4-4.17,5.87-6.85,10.4-8.05c4.57-1.23,8.92-0.65,13.05,1.75
	C120.1,43.55,122.7,46.88,123.93,51.25 M116.23,63.1c0-2.93-1.03-5.42-3.1-7.45s-4.55-3.05-7.45-3.05c-2.83,0-5.32,1.02-7.45,3.05
	c-2,2.03-3,4.52-3,7.45c0,2.9,1,5.35,3,7.35c2.13,2.1,4.62,3.15,7.45,3.15c2.9,0,5.38-1.05,7.45-3.15
	C115.2,68.45,116.23,66,116.23,63.1 M37.98,63.1c0,2.9,1.02,5.35,3.05,7.35c2.07,2.1,4.55,3.15,7.45,3.15
	c2.87,0,5.35-1.05,7.45-3.15c2.03-2,3.05-4.45,3.05-7.35c0-2.93-1.02-5.42-3.05-7.45c-2.1-2.03-4.58-3.05-7.45-3.05
	c-2.9,0-5.38,1.02-7.45,3.05C39,57.68,37.98,60.17,37.98,63.1"/>
<path class="st4" d="M37.98,63.1c0-2.93,1.02-5.42,3.05-7.45c2.07-2.03,4.55-3.05,7.45-3.05c2.87,0,5.35,1.02,7.45,3.05
	c2.03,2.03,3.05,4.52,3.05,7.45c0,2.9-1.02,5.35-3.05,7.35c-2.1,2.1-4.58,3.15-7.45,3.15c-2.9,0-5.38-1.05-7.45-3.15
	C39,68.45,37.98,66,37.98,63.1 M116.23,63.1c0,2.9-1.03,5.35-3.1,7.35c-2.07,2.1-4.55,3.15-7.45,3.15c-2.83,0-5.32-1.05-7.45-3.15
	c-2-2-3-4.45-3-7.35c0-2.93,1-5.42,3-7.45c2.13-2.03,4.62-3.05,7.45-3.05c2.9,0,5.38,1.02,7.45,3.05S116.23,60.17,116.23,63.1
	 M111.48,65.05c0-1.87-0.63-3.42-1.9-4.65c-1.3-1.3-2.87-1.95-4.7-1.95c-1.8,0-3.37,0.65-4.7,1.95c-1.27,1.23-1.9,2.78-1.9,4.65
	v0.65c0.13,1.5,0.77,2.8,1.9,3.9c1.33,1.27,2.9,1.9,4.7,1.9c1.83,0,3.4-0.63,4.7-1.9c1.1-1.1,1.72-2.4,1.85-3.9L111.48,65.05
	 M42.73,65.05l0.05,0.65c0.1,1.5,0.7,2.8,1.8,3.9c1.3,1.27,2.88,1.9,4.75,1.9c1.77,0,3.32-0.63,4.65-1.9c1.17-1.1,1.8-2.4,1.9-3.9
	l0.05-0.65c0-1.87-0.65-3.42-1.95-4.65c-1.33-1.3-2.88-1.95-4.65-1.95c-1.87,0-3.45,0.65-4.75,1.95
	C43.35,61.63,42.73,63.18,42.73,65.05"/>
<path class="st5" d="M42.73,65.05c0-1.87,0.62-3.42,1.85-4.65c1.3-1.3,2.88-1.95,4.75-1.95c1.77,0,3.32,0.65,4.65,1.95
	c1.3,1.23,1.95,2.78,1.95,4.65l-0.05,0.65c-0.1,1.5-0.73,2.8-1.9,3.9c-1.33,1.27-2.88,1.9-4.65,1.9c-1.87,0-3.45-0.63-4.75-1.9
	c-1.1-1.1-1.7-2.4-1.8-3.9L42.73,65.05 M111.48,65.05l-0.05,0.65c-0.13,1.5-0.75,2.8-1.85,3.9c-1.3,1.27-2.87,1.9-4.7,1.9
	c-1.8,0-3.37-0.63-4.7-1.9c-1.13-1.1-1.77-2.4-1.9-3.9v-0.65c0-1.87,0.63-3.42,1.9-4.65c1.33-1.3,2.9-1.95,4.7-1.95
	c1.83,0,3.4,0.65,4.7,1.95C110.85,61.63,111.48,63.18,111.48,65.05"/>
<path class="st6" d="M61.58,77.9c0.5-3.23,1.97-6.08,4.4-8.55c0.6-0.6,1.22-1.12,1.85-1.55c2.7-2.03,5.82-3.05,9.35-3.05
	s6.65,1.02,9.35,3.05c0.6,0.43,1.2,0.95,1.8,1.55c2.43,2.47,3.9,5.32,4.4,8.55c-0.47,1.33-1.93,2.5-4.4,3.5
	c-3.07,1.27-6.78,1.9-11.15,1.9s-8.1-0.63-11.2-1.9C63.51,80.4,62.05,79.23,61.58,77.9"/>
<path class="st7" d="M61.58,77.9c0.47,1.33,1.93,2.5,4.4,3.5c3.1,1.27,6.83,1.9,11.2,1.9s8.08-0.63,11.15-1.9
	c2.47-1,3.93-2.17,4.4-3.5l0.2,2.6l-0.05,1.05c-0.2,2.33-1.72,4.33-4.55,6c-3.07,1.8-6.78,2.7-11.15,2.7s-8.1-0.9-11.2-2.7
	c-2.83-1.67-4.35-3.67-4.55-6l-0.05-1.05L61.58,77.9"/>
<path class="st8" d="M37.83,132l1.9-2.85c2.93-4.2,6.03-7.82,9.3-10.85c8.2-7.6,17.52-11.4,27.95-11.4c10.4,0,19.72,3.8,27.95,11.4
	c3.27,3,6.37,6.62,9.3,10.85l1.85,2.85H37.83"/>
<path class="st9" d="M13.18,87.9v29.65c-2.4-0.37-4.42-1.37-6.05-3c-2.83-2.83-3.73-6.8-2.7-11.9c1.03-4.97,3.62-9.58,7.75-13.85
	l0.1-0.1L13.18,87.9 M141.18,117.5V88.15l0.6,0.55l0.1,0.1c4.13,4.27,6.72,8.88,7.75,13.85c1.03,5.1,0.13,9.07-2.7,11.9
	C145.36,116.12,143.45,117.1,141.18,117.5"/>
</svg>
