<?xml version="1.0" encoding="utf-8"?>
<!-- Generator: Adobe Illustrator 27.3.1, SVG Export Plug-In . SVG Version: 6.00 Build 0)  -->
<svg version="1.1" id="图层_1" xmlns="http://www.w3.org/2000/svg" xmlns:xlink="http://www.w3.org/1999/xlink" x="0px" y="0px"
	 viewBox="0 0 154.06 155.37" style="enable-background:new 0 0 154.06 155.37;" xml:space="preserve">
<style type="text/css">
	.st0{fill:#5084C5;}
	.st1{fill:#F0EDE6;}
	.st2{fill:#5E92CE;}
	.st3{fill:#2C4B77;}
	.st4{fill:#5A5B5B;}
	.st5{fill:#FFFFFF;}
	.st6{fill:#E8E7E6;}
	.st7{fill:#4A78B9;}
	.st8{fill:#436FAE;}
	.st9{fill:#3F69A5;}
	.st10{fill:#FFFCF5;}
</style>
<path class="st0" d="M71.02,41.03l-0.45,3.95l-1.75,16.3l-0.45,4.3l-0.75,7.05l-0.1,0.45c-0.17,2.5,0.25,4.48,1.25,5.95
	c1.37,2.03,3.88,3.02,7.55,2.95c4.03-0.07,6.78-1.23,8.25-3.5c0.9-1.4,1.32-3.2,1.25-5.4l-0.1-0.85l-0.75-7.05l-0.45-4.25l-1.7-16.2
	l-0.45-3.9l-2.25-20.85h51.65c5.6,0,8.48,2.73,8.65,8.2v88.05v9.5v10.1c-0.17,5.43-3.05,8.15-8.65,8.15h-11.55h-86.3H21.07
	c-5.6,0-8.48-2.72-8.65-8.15v-8.05v-10v-89.6c0.17-5.47,3.05-8.2,8.65-8.2h52.15L71.02,41.03 M129.67,100.43
	c1.63-6.57,1.78-12.5,0.45-17.8c-1.4-5.37-3.93-8.53-7.6-9.5c-3.73-1-7.52,0.47-11.35,4.4c-3.9,3.93-6.73,9.18-8.5,15.75l0.05,0.4
	c-0.97,3.57-0.52,6.98,1.35,10.25c1.93,3.3,4.73,5.45,8.4,6.45c3.73,1,7.27,0.53,10.6-1.4c3.2-1.9,5.33-4.6,6.4-8.1L129.67,100.43
	 M93.92,106.28c-1.23-0.1-2.45,0.1-3.65,0.6c-8.4,3.4-17.65,3.33-27.75-0.2l-2.6-0.45c-1.17,0-2.32,0.27-3.45,0.8
	c-2,0.97-3.35,2.5-4.05,4.6c-0.73,2.03-0.62,4.05,0.35,6.05c0.93,1.97,2.45,3.32,4.55,4.05l2.6,0.85c12.27,3.77,23.6,3.77,34,0
	l2.5-1c2-0.9,3.42-2.35,4.25-4.35c0.8-2.03,0.78-4.07-0.05-6.1c-0.83-2.03-2.27-3.45-4.3-4.25L93.92,106.28 M96.92,131.03
	c-0.4-1.53-1.3-2.68-2.7-3.45c-1.33-0.77-2.75-0.95-4.25-0.55c-1.53,0.4-2.72,1.28-3.55,2.65c-0.73,1.33-0.9,2.77-0.5,4.3
	c0.4,1.5,1.27,2.65,2.6,3.45c1.4,0.8,2.87,1,4.4,0.6c1.5-0.4,2.63-1.3,3.4-2.7C97.12,133.97,97.32,132.53,96.92,131.03
	 M109.57,124.93c-0.33-1.27-1.07-2.23-2.2-2.9c-1.13-0.67-2.32-0.83-3.55-0.5c-1.27,0.33-2.23,1.08-2.9,2.25
	c-0.67,1.13-0.83,2.33-0.5,3.6c0.37,1.23,1.12,2.18,2.25,2.85c1.13,0.63,2.33,0.78,3.6,0.45c1.23-0.33,2.18-1.07,2.85-2.2
	C109.78,127.35,109.93,126.17,109.57,124.93 M49.27,50.18c0-1.57-0.57-2.92-1.7-4.05c-1.1-1.1-2.43-1.65-4-1.65
	c-1.57,0-2.92,0.55-4.05,1.65c-1.1,1.13-1.65,2.48-1.65,4.05c0,1.57,0.55,2.9,1.65,4c1.13,1.13,2.48,1.7,4.05,1.7
	c1.57,0,2.9-0.57,4-1.7C48.7,53.08,49.27,51.75,49.27,50.18 M63.12,47.53c0-1.3-0.47-2.42-1.4-3.35c-0.93-0.93-2.05-1.4-3.35-1.4
	c-1.3,0-2.42,0.47-3.35,1.4c-0.93,0.93-1.4,2.05-1.4,3.35c0,1.3,0.47,2.42,1.4,3.35c0.93,0.93,2.05,1.4,3.35,1.4
	c1.3,0,2.42-0.47,3.35-1.4C62.65,49.95,63.12,48.83,63.12,47.53 M51.97,35.58c0-0.97-0.35-1.8-1.05-2.5s-1.53-1.05-2.5-1.05
	s-1.8,0.35-2.5,1.05s-1.05,1.53-1.05,2.5c0,0.97,0.35,1.8,1.05,2.5s1.53,1.05,2.5,1.05s1.8-0.35,2.5-1.05S51.97,36.55,51.97,35.58
	 M23.57,100.43l0.2,0.45c1.07,3.5,3.2,6.2,6.4,8.1c3.33,1.93,6.87,2.4,10.6,1.4c3.67-1,6.47-3.15,8.4-6.45
	c1.87-3.27,2.32-6.68,1.35-10.25l0.05-0.4c-1.77-6.57-4.6-11.82-8.5-15.75c-3.83-3.93-7.62-5.4-11.35-4.4
	c-3.67,0.97-6.2,4.13-7.6,9.5C21.78,87.93,21.93,93.87,23.57,100.43"/>
<path class="st1" d="M84.52,60.93l0.45,4.25c-0.4,0.53-0.95,1-1.65,1.4c-1.6,0.83-3.93,1.27-7,1.3c-2.73,0.03-4.82-0.3-6.25-1
	c-0.73-0.33-1.3-0.77-1.7-1.3l0.45-4.3c0.43,0.4,1,0.75,1.7,1.05c1.43,0.57,3.37,0.83,5.8,0.8c2.77-0.03,4.93-0.38,6.5-1.05
	L84.52,60.93 M85.72,72.23l0.1,0.85c0.07,2.2-0.35,4-1.25,5.4c-1.47,2.27-4.22,3.43-8.25,3.5c-3.67,0.07-6.18-0.92-7.55-2.95
	c-1-1.47-1.42-3.45-1.25-5.95l0.1-0.45c0.17,1.23,0.67,2.25,1.5,3.05c1.4,1.37,3.8,2.03,7.2,2c3.73-0.07,6.37-0.88,7.9-2.45
	C85.02,74.43,85.52,73.43,85.72,72.23 M70.57,44.98l0.45-3.95l1.75,0.4l3.55,0.15l4.3-0.35l1.75-0.4l0.45,3.9l-1.8,0.5l-4.7,0.4
	l-4-0.2L70.57,44.98"/>
<path class="st2" d="M73.22,19.98H21.07c-5.6,0-8.48,2.73-8.65,8.2v-3.5c0-5.8,2.88-8.7,8.65-8.7h52.6L73.22,19.98 M140.42,28.18
	c-0.17-5.47-3.05-8.2-8.65-8.2H80.12l-0.4-4h52.05c5.77,0,8.65,2.9,8.65,8.7V28.18 M129.67,100.43l-0.2,0.45
	c-1.07,3.5-3.2,6.2-6.4,8.1c-3.33,1.93-6.87,2.4-10.6,1.4c-3.67-1-6.47-3.15-8.4-6.45c-1.87-3.27-2.32-6.68-1.35-10.25l-0.05-0.4
	c1.77-6.57,4.6-11.82,8.5-15.75c3.83-3.93,7.62-5.4,11.35-4.4c3.67,0.97,6.2,4.13,7.6,9.5C131.45,87.93,131.3,93.87,129.67,100.43
	 M118.97,86.43c-2.53-0.63-4.93-0.3-7.2,1c-2.33,1.33-3.83,3.27-4.5,5.8c-0.7,2.53-0.38,4.97,0.95,7.3c1.3,2.23,3.22,3.68,5.75,4.35
	c2.57,0.7,5,0.42,7.3-0.85c2.27-1.37,3.75-3.32,4.45-5.85c0.67-2.57,0.35-4.98-0.95-7.25C123.47,88.67,121.53,87.17,118.97,86.43
	 M23.57,100.43c-1.63-6.57-1.78-12.5-0.45-17.8c1.4-5.37,3.93-8.53,7.6-9.5c3.73-1,7.52,0.47,11.35,4.4
	c3.9,3.93,6.73,9.18,8.5,15.75l-0.05,0.4c0.97,3.57,0.52,6.98-1.35,10.25c-1.93,3.3-4.73,5.45-8.4,6.45c-3.73,1-7.27,0.53-10.6-1.4
	c-3.2-1.9-5.33-4.6-6.4-8.1L23.57,100.43 M34.27,86.43c-2.57,0.73-4.5,2.23-5.8,4.5c-1.3,2.27-1.62,4.68-0.95,7.25
	c0.7,2.53,2.18,4.48,4.45,5.85c2.3,1.27,4.73,1.55,7.3,0.85c2.53-0.67,4.45-2.12,5.75-4.35c1.33-2.33,1.65-4.77,0.95-7.3
	c-0.67-2.53-2.17-4.47-4.5-5.8C39.2,86.13,36.8,85.8,34.27,86.43"/>
<path class="st3" d="M12.42,28.18v89.6c-3.47,4.4-5.85,9-7.15,13.8c-0.8,3-1.05,5.67-0.75,8c0.33,2.8,1.43,5.13,3.3,7
	c0.7,0.7,1.45,1.28,2.25,1.75l1.95,0.9c2.9,1.03,6.48,0.98,10.75-0.15c3.83-1,7.55-2.7,11.15-5.1h86.3c3.53,2.4,7.22,4.1,11.05,5.1
	c4.9,1.3,8.92,1.17,12.05-0.4l0.65-0.35l2.25-1.75c1.87-1.87,2.97-4.2,3.3-7c0.3-2.33,0.05-5-0.75-8
	c-1.43-5.37-4.22-10.48-8.35-15.35V28.18v-3.5c0-5.8-2.88-8.7-8.65-8.7H79.72l-0.95-8.75c-0.03-0.57-0.25-1.03-0.65-1.4h-0.05
	l-0.35-0.25l-1.05-0.25l-1,0.25l-0.4,0.25c-0.4,0.37-0.63,0.83-0.7,1.4l-0.9,8.75h-52.6c-5.77,0-8.65,2.9-8.65,8.7V28.18
	 M131.77,11.98c8.43,0,12.65,4.23,12.65,12.7v90.1c4,5,6.73,10.25,8.2,15.75l0.05,0.05c0.93,3.53,1.22,6.7,0.85,9.5
	c-0.47,3.73-1.95,6.85-4.45,9.35l-2.85,2.25l-0.2,0.1l-0.9,0.5c-3.87,2.07-8.82,2.3-14.85,0.7c-3.9-1.03-7.65-2.7-11.25-5H35.07
	c-3.63,2.3-7.38,3.97-11.25,5c-5.2,1.37-9.55,1.38-13.05,0.05h-0.1c-0.93-0.33-1.8-0.75-2.6-1.25H8.02c-1.07-0.63-2.07-1.42-3-2.35
	c-2.53-2.5-4.02-5.62-4.45-9.35c-0.4-2.8-0.12-5.97,0.85-9.5v-0.05c1.3-4.87,3.63-9.57,7-14.1V24.68c0-8.47,4.22-12.7,12.65-12.7h49
	l0.55-5.15V6.78c0.17-1.6,0.82-2.9,1.95-3.9l0.3-0.25l0.85-0.55l0.15-0.05c0.83-0.47,1.77-0.7,2.8-0.7c1,0,1.95,0.23,2.85,0.7
	l0.45,0.25l0.85,0.6c1.17,1.1,1.82,2.48,1.95,4.15l0.55,4.95H131.77"/>
<path class="st4" d="M116.07,90.13c1.63,0.47,2.85,1.38,3.65,2.75c0.87,1.47,1.08,3.02,0.65,4.65c-0.4,1.57-1.33,2.78-2.8,3.65
	c-1.43,0.83-2.97,1.03-4.6,0.6l-0.55-0.15c-1.3-0.47-2.28-1.33-2.95-2.6c-0.87-1.47-1.07-3.02-0.6-4.65c0.4-1.57,1.32-2.77,2.75-3.6
	c1.23-0.7,2.52-0.95,3.85-0.75L116.07,90.13 M37.17,90.13l0.6-0.1c1.33-0.2,2.62,0.05,3.85,0.75c1.43,0.83,2.35,2.03,2.75,3.6
	c0.47,1.63,0.27,3.18-0.6,4.65c-0.67,1.27-1.65,2.13-2.95,2.6l-0.55,0.15c-1.63,0.43-3.17,0.23-4.6-0.6
	c-1.47-0.87-2.4-2.08-2.8-3.65c-0.43-1.63-0.22-3.18,0.65-4.65C34.32,91.52,35.53,90.6,37.17,90.13"/>
<path class="st5" d="M37.17,90.13c-1.63,0.47-2.85,1.38-3.65,2.75c-0.87,1.47-1.08,3.02-0.65,4.65c0.4,1.57,1.33,2.78,2.8,3.65
	c1.43,0.83,2.97,1.03,4.6,0.6l0.55-0.15c1.3-0.47,2.28-1.33,2.95-2.6c0.87-1.47,1.07-3.02,0.6-4.65c-0.4-1.57-1.32-2.77-2.75-3.6
	c-1.23-0.7-2.52-0.95-3.85-0.75L37.17,90.13 M116.07,90.13l-0.6-0.1c-1.33-0.2-2.62,0.05-3.85,0.75c-1.43,0.83-2.35,2.03-2.75,3.6
	c-0.47,1.63-0.27,3.18,0.6,4.65c0.67,1.27,1.65,2.13,2.95,2.6l0.55,0.15c1.63,0.43,3.17,0.23,4.6-0.6c1.47-0.87,2.4-2.08,2.8-3.65
	c0.43-1.63,0.22-3.18-0.65-4.65C118.92,91.52,117.7,90.6,116.07,90.13 M118.97,86.43c2.57,0.73,4.5,2.23,5.8,4.5
	c1.3,2.27,1.62,4.68,0.95,7.25c-0.7,2.53-2.18,4.48-4.45,5.85c-2.3,1.27-4.73,1.55-7.3,0.85c-2.53-0.67-4.45-2.12-5.75-4.35
	c-1.33-2.33-1.65-4.77-0.95-7.3c0.67-2.53,2.17-4.47,4.5-5.8C114.03,86.13,116.43,85.8,118.97,86.43 M59.92,106.23l2.6,0.45
	c10.1,3.53,19.35,3.6,27.75,0.2c1.2-0.5,2.42-0.7,3.65-0.6c0.8,2.1,1.27,4.25,1.4,6.45c0.1,1.3,0.07,2.63-0.1,4
	c-0.2,1.9-0.63,3.85-1.3,5.85c-10.4,3.77-21.73,3.77-34,0C57.75,116.52,57.75,111.07,59.92,106.23 M34.27,86.43
	c2.53-0.63,4.93-0.3,7.2,1c2.33,1.33,3.83,3.27,4.5,5.8c0.7,2.53,0.38,4.97-0.95,7.3c-1.3,2.23-3.22,3.68-5.75,4.35
	c-2.57,0.7-5,0.42-7.3-0.85c-2.27-1.37-3.75-3.32-4.45-5.85c-0.67-2.57-0.35-4.98,0.95-7.25C29.77,88.67,31.7,87.17,34.27,86.43"/>
<path class="st6" d="M59.92,106.23c-2.17,4.83-2.17,10.28,0,16.35l-2.6-0.85c-2.1-0.73-3.62-2.08-4.55-4.05
	c-0.97-2-1.08-4.02-0.35-6.05c0.7-2.1,2.05-3.63,4.05-4.6C57.6,106.5,58.75,106.23,59.92,106.23 M93.92,122.58
	c0.67-2,1.1-3.95,1.3-5.85c0.17-1.37,0.2-2.7,0.1-4c-0.13-2.2-0.6-4.35-1.4-6.45l2.4,0.6c2.03,0.8,3.47,2.22,4.3,4.25
	c0.83,2.03,0.85,4.07,0.05,6.1c-0.83,2-2.25,3.45-4.25,4.35L93.92,122.58"/>
<path class="st7" d="M109.57,124.93c0.37,1.23,0.22,2.42-0.45,3.55c-0.67,1.13-1.62,1.87-2.85,2.2c-1.27,0.33-2.47,0.18-3.6-0.45
	c-1.13-0.67-1.88-1.62-2.25-2.85c-0.33-1.27-0.17-2.47,0.5-3.6c0.67-1.17,1.63-1.92,2.9-2.25c1.23-0.33,2.42-0.17,3.55,0.5
	C108.5,122.7,109.23,123.67,109.57,124.93 M96.92,131.03c0.4,1.5,0.2,2.93-0.6,4.3c-0.77,1.4-1.9,2.3-3.4,2.7
	c-1.53,0.4-3,0.2-4.4-0.6c-1.33-0.8-2.2-1.95-2.6-3.45c-0.4-1.53-0.23-2.97,0.5-4.3c0.83-1.37,2.02-2.25,3.55-2.65
	c1.5-0.4,2.92-0.22,4.25,0.55C95.62,128.35,96.52,129.5,96.92,131.03 M49.27,50.18c0,1.57-0.57,2.9-1.7,4c-1.1,1.13-2.43,1.7-4,1.7
	c-1.57,0-2.92-0.57-4.05-1.7c-1.1-1.1-1.65-2.43-1.65-4c0-1.57,0.55-2.92,1.65-4.05c1.13-1.1,2.48-1.65,4.05-1.65
	c1.57,0,2.9,0.55,4,1.65C48.7,47.27,49.27,48.62,49.27,50.18 M51.97,35.58c0,0.97-0.35,1.8-1.05,2.5s-1.53,1.05-2.5,1.05
	s-1.8-0.35-2.5-1.05s-1.05-1.53-1.05-2.5c0-0.97,0.35-1.8,1.05-2.5s1.53-1.05,2.5-1.05s1.8,0.35,2.5,1.05S51.97,34.62,51.97,35.58
	 M63.12,47.53c0,1.3-0.47,2.42-1.4,3.35c-0.93,0.93-2.05,1.4-3.35,1.4c-1.3,0-2.42-0.47-3.35-1.4c-0.93-0.93-1.4-2.05-1.4-3.35
	c0-1.3,0.47-2.42,1.4-3.35c0.93-0.93,2.05-1.4,3.35-1.4c1.3,0,2.42,0.47,3.35,1.4C62.65,45.12,63.12,46.23,63.12,47.53"/>
<path class="st8" d="M12.42,117.78v10c-1.37,2.53-2.42,5.13-3.15,7.8c-0.37,1.4-0.62,2.73-0.75,4c-0.37,3.43,0.15,6.35,1.55,8.75
	c-0.8-0.47-1.55-1.05-2.25-1.75c-1.87-1.87-2.97-4.2-3.3-7c-0.3-2.33-0.05-5,0.75-8C6.57,126.78,8.95,122.18,12.42,117.78
	 M140.42,125.73v-9.5c4.13,4.87,6.92,9.98,8.35,15.35c0.8,3,1.05,5.67,0.75,8c-0.33,2.8-1.43,5.13-3.3,7l-2.25,1.75
	c1.4-2.37,1.92-5.28,1.55-8.75l-0.75-4C143.83,132.22,142.38,128.93,140.42,125.73"/>
<path class="st9" d="M140.42,125.73c1.97,3.2,3.42,6.48,4.35,9.85l0.75,4c0.37,3.47-0.15,6.38-1.55,8.75l-0.65,0.35
	c-3.13,1.57-7.15,1.7-12.05,0.4c-3.83-1-7.52-2.7-11.05-5.1h11.55c5.6,0,8.48-2.72,8.65-8.15V125.73 M12.42,127.78v8.05
	c0.17,5.43,3.05,8.15,8.65,8.15h12.85c-3.6,2.4-7.32,4.1-11.15,5.1c-4.27,1.13-7.85,1.18-10.75,0.15l-1.95-0.9
	c-1.4-2.4-1.92-5.32-1.55-8.75c0.13-1.27,0.38-2.6,0.75-4C10,132.92,11.05,130.32,12.42,127.78"/>
<path class="st10" d="M84.97,65.18l0.75,7.05c-0.2,1.2-0.7,2.2-1.5,3c-1.53,1.57-4.17,2.38-7.9,2.45c-3.4,0.03-5.8-0.63-7.2-2
	c-0.83-0.8-1.33-1.82-1.5-3.05l0.75-7.05c0.4,0.53,0.97,0.97,1.7,1.3c1.43,0.7,3.52,1.03,6.25,1c3.07-0.03,5.4-0.47,7-1.3
	C84.02,66.18,84.57,65.72,84.97,65.18 M68.82,61.28l1.75-16.3l1.75,0.45l4,0.2l4.7-0.4l1.8-0.5l1.7,16.2l-1.7,1.15
	c-1.57,0.67-3.73,1.02-6.5,1.05c-2.43,0.03-4.37-0.23-5.8-0.8C69.82,62.03,69.25,61.68,68.82,61.28 M71.02,41.03l2.2-21.05l0.45-4
	l0.9-8.75c0.07-0.57,0.3-1.03,0.7-1.4l0.4-0.25l1-0.25l1.05,0.25l0.35,0.25h0.05c0.4,0.37,0.62,0.83,0.65,1.4l0.95,8.75l0.4,4
	l2.25,20.85l-1.75,0.4l-4.3,0.35l-3.55-0.15L71.02,41.03"/>
</svg>
